<svg xmlns="http://www.w3.org/2000/svg" xmlns:xlink="http://www.w3.org/1999/xlink" width="100" zoomAndPan="magnify" viewBox="0 0 75 74.999997" height="100" preserveAspectRatio="xMidYMid meet" version="1.0"><defs><clipPath id="a1a473a016"><path d="M 41.285156 57.25 L 69.753906 57.25 L 69.753906 59.722656 L 41.285156 59.722656 Z M 41.285156 57.25 " clip-rule="nonzero"/></clipPath><clipPath id="39ee0b6c22"><path d="M 54.261719 44.257812 L 56.734375 44.257812 L 56.734375 72.757812 L 54.261719 72.757812 Z M 54.261719 44.257812 " clip-rule="nonzero"/></clipPath><clipPath id="8ed26b0ddc"><path d="M 2 2 L 73 2 L 73 72.816406 L 2 72.816406 Z M 2 2 " clip-rule="nonzero"/></clipPath></defs><g clip-path="url(#a1a473a016)"><path fill="#ffffff" d="M 68.570312 59.691406 C 69.222656 59.691406 69.753906 59.160156 69.753906 58.507812 C 69.753906 57.855469 69.222656 57.324219 68.570312 57.324219 L 42.46875 57.324219 C 41.816406 57.324219 41.285156 57.855469 41.285156 58.507812 C 41.285156 59.160156 41.816406 59.691406 42.46875 59.691406 L 68.570312 59.691406 " fill-opacity="1" fill-rule="nonzero"/></g><g clip-path="url(#39ee0b6c22)"><path fill="#ffffff" d="M 56.699219 45.441406 C 56.699219 44.785156 56.171875 44.257812 55.519531 44.257812 C 54.867188 44.257812 54.335938 44.785156 54.335938 45.441406 L 54.335938 71.574219 C 54.335938 72.226562 54.867188 72.757812 55.519531 72.757812 C 56.171875 72.757812 56.699219 72.226562 56.699219 71.574219 L 56.699219 45.441406 " fill-opacity="1" fill-rule="nonzero"/></g><g clip-path="url(#8ed26b0ddc)"><path fill="#ffffff" d="M 19.863281 65.882812 C 19.65625 66.101562 19.199219 66.402344 18.882812 66.515625 L 5.425781 72.066406 C 3.085938 73.03125 1.976562 71.90625 2.941406 69.582031 L 8.476562 56.140625 C 8.605469 55.808594 8.902344 55.382812 9.125 55.128906 L 60.25 4.019531 C 62.605469 1.664062 66.464844 1.664062 68.835938 4.035156 L 70.957031 6.167969 C 73.34375 8.558594 73.34375 12.382812 70.988281 14.773438 L 68.820312 16.90625 L 70.972656 19.042969 C 72.160156 20.242188 72.144531 22.1875 70.988281 23.359375 L 57.023438 37.320312 C 56.425781 37.90625 55.445312 37.890625 54.875 37.320312 C 54.273438 36.722656 54.304688 35.742188 54.875 35.140625 L 68.820312 21.207031 L 66.6875 19.058594 Z M 62.386719 6.183594 L 60.234375 8.320312 L 66.6875 14.773438 L 68.820312 12.621094 C 70.007812 11.433594 70.023438 9.539062 68.820312 8.320312 L 66.671875 6.183594 C 65.5 5 63.570312 5 62.386719 6.183594 Z M 13 55.554688 L 19.453125 62.007812 L 64.535156 16.90625 L 58.101562 10.488281 Z M 17.109375 63.96875 L 11.054688 57.910156 L 6.738281 68.269531 Z M 17.109375 63.96875 " fill-opacity="1" fill-rule="evenodd"/></g></svg>