<svg xmlns="http://www.w3.org/2000/svg" xmlns:xlink="http://www.w3.org/1999/xlink" width="100" zoomAndPan="magnify" viewBox="0 0 75 74.999997" height="100" preserveAspectRatio="xMidYMid meet" version="1.0"><defs><clipPath id="77279ab06e"><path d="M 2 5.144531 L 75 5.144531 L 75 69.644531 L 2 69.644531 Z M 2 5.144531 " clip-rule="nonzero"/></clipPath></defs><g clip-path="url(#77279ab06e)"><path fill="#c3b9a8" d="M 74.78125 14.882812 L 72.78125 11.632812 C 72.609375 11.351562 72.320312 11.164062 71.996094 11.125 C 71.664062 11.078125 71.339844 11.1875 71.101562 11.414062 L 61.855469 20.199219 L 71.574219 9.480469 C 71.972656 9.039062 71.941406 8.363281 71.503906 7.960938 L 68.78125 5.441406 C 68.558594 5.234375 68.253906 5.128906 67.949219 5.15625 C 67.636719 5.183594 67.359375 5.335938 67.175781 5.585938 L 48.484375 30.273438 C 46.699219 30.765625 44.152344 31.28125 42.25 30.261719 C 41.269531 29.738281 40.785156 29.355469 40.433594 29.078125 C 39.238281 28.144531 38.8125 28.253906 36.414062 28.878906 L 34.996094 29.25 C 33.242188 29.710938 33.242188 29.710938 32.144531 29.683594 C 31.398438 29.667969 30.269531 29.640625 28.101562 29.691406 C 27.25 29.710938 25.773438 29.742188 25.160156 29.714844 C 24.78125 29.253906 24.085938 28.890625 22.390625 28.488281 C 18.566406 27.570312 15.921875 30.097656 14.78125 31.976562 L 14.355469 31.976562 C 9.253906 27.75 4.484375 30.320312 2.640625 32.328125 C 2.621094 32.355469 2.617188 32.386719 2.59375 32.410156 C 2.542969 32.476562 2.503906 32.542969 2.46875 32.617188 C 2.445312 32.671875 2.421875 32.722656 2.410156 32.777344 C 2.402344 32.804688 2.382812 32.832031 2.378906 32.863281 C 2.328125 33.125 -2.171875 58.808594 21.214844 66.109375 L 21.214844 67.472656 L 11.8125 67.472656 L 11.8125 69.640625 L 55.566406 69.640625 L 55.566406 67.472656 L 45.195312 67.472656 L 45.195312 66.109375 C 68.582031 58.808594 64.082031 33.125 64.035156 32.863281 C 63.9375 32.347656 63.484375 31.976562 62.960938 31.976562 L 54.964844 31.976562 C 54.90625 31.933594 54.855469 31.898438 54.796875 31.855469 L 74.527344 16.296875 C 74.957031 15.957031 75.066406 15.351562 74.78125 14.882812 Z M 50.75 31.875 C 50.808594 31.898438 50.886719 31.9375 50.972656 31.976562 L 50.378906 31.976562 C 50.523438 31.9375 50.65625 31.894531 50.75 31.875 Z M 21.882812 30.59375 C 22.964844 30.847656 23.351562 31.03125 23.472656 31.101562 C 23.9375 31.957031 24.480469 31.941406 28.152344 31.855469 C 30.265625 31.808594 31.363281 31.832031 32.089844 31.851562 C 33.5 31.886719 33.609375 31.855469 35.550781 31.347656 L 36.96875 30.976562 C 37.898438 30.730469 38.640625 30.546875 38.769531 30.550781 C 38.816406 30.574219 38.964844 30.6875 39.085938 30.777344 C 39.433594 31.054688 39.964844 31.460938 40.875 31.976562 L 17.5 31.976562 C 18.390625 31.039062 19.84375 30.109375 21.882812 30.59375 Z M 9.734375 31.976562 L 7.519531 31.976562 C 8.183594 31.839844 8.925781 31.8125 9.734375 31.976562 Z M 62.027344 34.144531 C 62.628906 38.652344 64.039062 58.457031 43.804688 64.265625 C 43.34375 64.398438 43.019531 64.824219 43.019531 65.308594 L 43.019531 67.472656 L 23.390625 67.472656 L 23.390625 65.308594 C 23.390625 64.824219 23.070312 64.398438 22.605469 64.265625 C 2.402344 58.46875 3.789062 38.65625 4.382812 34.144531 Z M 68.1875 7.847656 L 69.238281 8.820312 L 58.390625 20.789062 Z M 59.824219 25.128906 L 71.628906 13.90625 L 72.417969 15.195312 Z M 59.824219 25.128906 " fill-opacity="1" fill-rule="nonzero"/></g></svg>