<svg xmlns="http://www.w3.org/2000/svg" xmlns:xlink="http://www.w3.org/1999/xlink" width="450" zoomAndPan="magnify" viewBox="0 0 337.5 74.999997" height="100" preserveAspectRatio="xMidYMid meet" version="1.0"><defs><g/><clipPath id="625fe4f00a"><path d="M 170 0.0546875 L 231 0.0546875 L 231 74.945312 L 170 74.945312 Z M 170 0.0546875 " clip-rule="nonzero"/></clipPath><clipPath id="7fbc54d4d4"><path d="M 0 0.0546875 L 85 0.0546875 L 85 74.945312 L 0 74.945312 Z M 0 0.0546875 " clip-rule="nonzero"/></clipPath></defs><g fill="#d8ceba" fill-opacity="1"><g transform="translate(70.453268, 70.886014)"><g><path d="M 29.75 -50.976562 L 28.011719 -49.152344 C 27.140625 -48.019531 26.445312 -46.453125 25.664062 -44.277344 C 23.75 -37.753906 23.75 -37.667969 22.964844 -28.445312 C 22.269531 -24.445312 22.269531 -24.445312 22.269531 -24.011719 C 22.269531 -21.140625 26.707031 -17.222656 29.925781 -17.222656 C 31.144531 -17.222656 32.1875 -17.921875 34.535156 -20.441406 C 37.492188 -23.574219 39.496094 -25.316406 41.582031 -26.707031 C 45.0625 -28.96875 49.324219 -30.359375 52.628906 -30.359375 C 56.71875 -30.359375 59.9375 -26.792969 59.9375 -22.355469 C 59.9375 -16.441406 55.761719 -12.699219 42.800781 -6.871094 C 36.449219 -4.175781 32.359375 -1.304688 29.664062 2.175781 L 29.925781 2.4375 C 33.316406 0.261719 35.144531 -0.347656 37.929688 -0.347656 C 38.539062 -0.347656 38.539062 -0.347656 44.105469 0.175781 L 48.367188 -0.433594 L 49.671875 -0.609375 C 50.976562 -0.957031 52.195312 -1.390625 53.5 -1.828125 C 54.371094 -2.085938 54.890625 -2.261719 55.066406 -2.347656 L 56.195312 -3.042969 L 58.199219 -3.828125 L 59.242188 -4.785156 C 60.808594 -5.046875 60.980469 -5.132812 63.242188 -6.871094 C 67.941406 -10.527344 70.375 -15.398438 70.375 -20.878906 C 70.375 -30.535156 62.722656 -37.144531 51.671875 -37.144531 C 45.148438 -37.144531 40.105469 -35.40625 30.96875 -29.925781 C 31.054688 -32.96875 31.144531 -33.492188 31.402344 -35.929688 C 31.664062 -39.058594 31.753906 -40.191406 31.753906 -42.105469 C 31.753906 -42.539062 31.753906 -43.582031 31.664062 -44.976562 C 31.578125 -45.84375 31.578125 -46.800781 31.578125 -47.238281 C 31.578125 -50.019531 32.796875 -51.152344 37.234375 -52.371094 C 38.539062 -52.71875 38.539062 -52.71875 43.496094 -53.328125 L 47.847656 -54.285156 C 52.804688 -55.238281 52.804688 -55.238281 53.675781 -55.9375 C 54.542969 -56.632812 55.066406 -57.851562 55.066406 -59.066406 C 55.066406 -60.722656 54.109375 -62.199219 52.195312 -63.765625 C 51.152344 -64.636719 50.28125 -64.894531 47.0625 -64.984375 C 43.0625 -65.15625 38.625 -66.203125 37.582031 -67.417969 C 36.1875 -68.722656 35.230469 -69.507812 34.882812 -69.507812 C 34.535156 -69.507812 34.101562 -68.550781 34.101562 -67.59375 C 34.101562 -64.546875 35.058594 -62.808594 38.539062 -59.242188 C 36.710938 -58.023438 36.101562 -57.503906 34.363281 -55.675781 C 33.492188 -54.71875 32.535156 -53.761719 31.578125 -52.804688 Z M 29.75 -50.976562 "/></g></g></g><g clip-path="url(#625fe4f00a)"><g fill="#d8ceba" fill-opacity="1"><g transform="translate(157.441585, 70.886014)"><g><path d="M 40.191406 4.699219 C 43.0625 2.261719 44.628906 1.652344 47.757812 1.652344 L 49.0625 1.042969 L 53.585938 -0.0859375 L 59.242188 -2.871094 C 62.984375 -4.351562 62.984375 -4.351562 63.851562 -5.046875 C 65.679688 -6.351562 67.941406 -8.785156 69.769531 -11.570312 C 72.378906 -15.3125 73.335938 -18.179688 73.335938 -22.355469 C 73.335938 -28.707031 70.464844 -34.273438 65.417969 -37.667969 C 63.242188 -39.148438 61.070312 -40.015625 57.761719 -40.800781 C 57.851562 -41.320312 57.851562 -41.582031 57.851562 -41.757812 C 57.851562 -42.972656 57.066406 -44.105469 55.152344 -45.671875 C 53.933594 -46.714844 53.066406 -47.238281 52.457031 -47.238281 C 51.761719 -47.238281 50.976562 -46.800781 50.976562 -46.453125 C 50.976562 -46.28125 50.976562 -46.105469 51.066406 -45.933594 C 51.152344 -45.671875 51.152344 -45.496094 51.152344 -45.410156 C 51.152344 -44.628906 50.28125 -42.800781 49.238281 -41.148438 C 44.453125 -40.886719 41.582031 -40.453125 38.015625 -39.320312 C 38.191406 -42.277344 38.277344 -43.757812 38.796875 -46.714844 C 45.410156 -48.195312 49.671875 -49.410156 54.023438 -51.066406 C 58.980469 -52.890625 60.371094 -54.023438 60.371094 -56.195312 C 60.371094 -57.675781 59.765625 -58.546875 57.761719 -59.503906 C 54.195312 -61.242188 54.195312 -61.242188 53.5 -61.242188 C 52.976562 -61.242188 52.28125 -60.894531 50.457031 -59.9375 C 47.496094 -58.199219 44.539062 -56.980469 40.539062 -55.761719 C 41.320312 -58.894531 41.667969 -60.113281 42.367188 -62.199219 C 42.886719 -63.765625 43.0625 -64.460938 43.0625 -64.894531 C 43.0625 -66.203125 42.191406 -67.679688 40.277344 -69.855469 C 39.320312 -70.898438 38.625 -71.332031 37.929688 -71.332031 C 36.710938 -71.332031 35.929688 -70.117188 34.796875 -66.550781 C 33.578125 -62.808594 32.535156 -58.285156 31.664062 -53.675781 C 27.925781 -52.890625 25.488281 -52.542969 19.921875 -52.023438 C 16.703125 -51.761719 16.355469 -51.585938 16.355469 -50.628906 C 16.355469 -49.585938 16.875 -48.628906 18.09375 -47.324219 C 20.007812 -45.234375 21.660156 -44.367188 23.488281 -44.367188 C 24.445312 -44.367188 26.621094 -44.628906 30.535156 -45.234375 C 30.359375 -43.234375 30.359375 -42.972656 30.273438 -41.320312 C 30.273438 -40.363281 30.1875 -38.710938 30.097656 -36.363281 C 21.140625 -30.96875 18.355469 -28.792969 14.875 -24.707031 C 13.308594 -22.792969 12.789062 -21.835938 12.789062 -21.050781 C 12.789062 -19.574219 13.050781 -19.226562 15.222656 -17.574219 C 16.964844 -16.441406 17.832031 -14.875 20.53125 -8.523438 C 22.269531 -4.175781 22.703125 -3.828125 25.574219 -3.828125 C 28.359375 -3.828125 31.925781 -5.566406 36.625 -9.394531 C 38.710938 -7.132812 39.667969 -6.523438 41.058594 -6.523438 C 41.582031 -6.523438 42.105469 -6.785156 42.453125 -7.132812 C 42.972656 -7.742188 43.496094 -8.875 43.496094 -9.394531 C 43.496094 -9.917969 43.410156 -10.089844 42.367188 -11.832031 C 42.105469 -12.179688 42.015625 -12.441406 41.148438 -13.832031 C 46.191406 -19.050781 50.804688 -26.011719 54.457031 -33.839844 C 60.199219 -32.882812 63.503906 -29.230469 63.503906 -23.75 C 63.503906 -19.921875 62.113281 -16.355469 59.242188 -12.789062 C 56.804688 -9.742188 54.980469 -8.089844 49.933594 -4.175781 C 45.84375 -1.132812 44.628906 -0.0859375 39.84375 4.4375 Z M 31.925781 -15.660156 C 29.140625 -13.308594 27.664062 -12.351562 26.792969 -12.351562 C 25.835938 -12.351562 24.53125 -13.136719 22.269531 -15.136719 C 20.703125 -16.441406 20.007812 -17.484375 20.007812 -18.269531 C 20.007812 -19.484375 21.226562 -20.878906 24.445312 -23.835938 C 26.621094 -25.75 26.96875 -25.921875 29.925781 -27.75 L 30.535156 -28.011719 C 31.402344 -21.75 31.753906 -20.183594 33.058594 -16.617188 Z M 38.972656 -22.617188 C 38.277344 -26.53125 38.101562 -28.1875 37.839844 -31.402344 C 40.191406 -32.449219 40.800781 -32.621094 45.496094 -33.578125 C 43.0625 -28.707031 42.015625 -26.878906 38.972656 -22.617188 Z M 38.972656 -22.617188 "/></g></g></g></g><g fill="#d8ceba" fill-opacity="1"><g transform="translate(244.429902, 70.886014)"><g><path d="M 8.175781 -42.972656 C 8.175781 -41.496094 9.394531 -40.191406 12.441406 -38.191406 C 15.570312 -36.101562 17.832031 -35.144531 19.746094 -35.144531 C 21.835938 -35.144531 23.402344 -36.710938 23.402344 -38.710938 C 23.402344 -40.625 22.445312 -42.886719 21.140625 -44.105469 C 19.660156 -45.496094 17.921875 -46.019531 14.875 -46.019531 C 10.265625 -46.019531 8.175781 -45.0625 8.175781 -42.972656 Z M 21.574219 -64.722656 C 18.964844 -64.722656 17.222656 -63.503906 17.222656 -61.589844 C 17.222656 -60.113281 19.398438 -57.589844 22.445312 -55.5 C 25.75 -53.328125 27.925781 -52.28125 29.578125 -52.28125 C 31.316406 -52.28125 32.621094 -54.023438 32.621094 -56.285156 C 32.621094 -58.71875 31.492188 -61.328125 29.925781 -62.460938 C 28.1875 -63.851562 24.878906 -64.722656 21.574219 -64.722656 Z M 30.96875 -43.148438 C 25.835938 -34.972656 24.878906 -33.058594 16.703125 -15.050781 C 15.660156 -12.613281 15.136719 -11.65625 14.613281 -11.65625 C 14.613281 -11.65625 14.355469 -11.742188 14.003906 -11.917969 C 13.832031 -12.003906 13.570312 -12.09375 13.484375 -12.09375 C 12.613281 -12.09375 12.003906 -10.785156 12.003906 -9.222656 C 12.003906 -7.742188 12.875 -6.175781 14.875 -4.175781 C 17.136719 -1.914062 19.398438 -0.433594 20.441406 -0.433594 C 21.226562 -0.433594 21.835938 -0.78125 22.53125 -1.828125 C 23.402344 -2.957031 23.488281 -3.132812 24.96875 -7.21875 C 28.96875 -18.179688 28.96875 -18.179688 29.839844 -23.140625 L 30.1875 -24.792969 C 30.1875 -24.792969 30.097656 -25.402344 29.925781 -26.359375 L 29.664062 -28.1875 L 29.492188 -29.054688 L 29.492188 -31.753906 L 29.578125 -35.230469 L 29.839844 -37.40625 C 30.273438 -39.234375 30.449219 -39.929688 31.316406 -42.886719 Z M 50.367188 -42.453125 C 43.582031 -41.234375 36.363281 -39.753906 33.753906 -39.058594 C 31.492188 -38.449219 30.535156 -37.582031 30.535156 -36.449219 C 30.535156 -35.320312 31.144531 -34.535156 32.882812 -33.667969 C 34.621094 -32.710938 37.058594 -32.011719 38.449219 -32.011719 C 38.886719 -32.011719 39.496094 -32.101562 40.363281 -32.273438 C 44.191406 -33.144531 46.890625 -33.667969 47.324219 -33.753906 C 47.757812 -33.839844 49.0625 -34.101562 50.367188 -34.273438 L 50.367188 -30.96875 C 50.367188 -27.488281 50.457031 -26.273438 50.976562 -24.359375 C 49.847656 -24.097656 49.0625 -23.921875 48.542969 -23.835938 C 48.195312 -23.835938 47.847656 -23.75 47.496094 -23.660156 C 45.671875 -23.226562 44.800781 -22.617188 44.800781 -21.660156 C 44.800781 -19.835938 48.804688 -17.136719 51.5 -17.136719 C 51.847656 -17.136719 52.371094 -17.222656 53.066406 -17.3125 C 57.152344 -18.007812 60.546875 -18.441406 61.765625 -18.441406 C 62.722656 -18.441406 63.332031 -18.007812 63.332031 -17.222656 C 63.332031 -16.617188 62.632812 -12.441406 62.113281 -10.265625 C 55.847656 -9.742188 54.890625 -9.65625 48.628906 -8.960938 L 48.367188 -10.527344 L 48.019531 -12.789062 C 47.324219 -17.050781 47.0625 -17.746094 45.410156 -19.136719 C 42.367188 -21.75 39.582031 -23.3125 38.277344 -23.3125 C 36.886719 -23.3125 35.40625 -21.488281 35.40625 -19.835938 C 35.40625 -19.3125 35.578125 -18.964844 35.839844 -18.617188 L 36.625 -17.746094 L 36.972656 -17.136719 C 37.234375 -16.617188 37.320312 -16.09375 38.015625 -13.222656 C 40.105469 -3.652344 42.800781 1.21875 45.84375 1.21875 C 47.671875 1.21875 48.714844 -0.261719 49.0625 -3.21875 C 50.804688 -2.523438 51.671875 -2.261719 52.976562 -2.261719 C 53.5 -2.261719 54.023438 -2.261719 54.71875 -2.347656 C 57.851562 -2.523438 65.679688 -2.785156 67.332031 -2.785156 L 70.464844 -2.695312 C 72.898438 -2.695312 74.292969 -3.652344 74.292969 -5.21875 C 74.292969 -6.613281 73.59375 -7.566406 71.59375 -9.132812 C 71.769531 -9.742188 71.941406 -10.265625 71.941406 -10.527344 C 72.726562 -13.398438 73.335938 -15.398438 73.59375 -15.746094 C 76.207031 -18.878906 76.207031 -18.878906 76.207031 -20.007812 C 76.207031 -21.226562 75.25 -22.355469 72.640625 -24.183594 C 68.636719 -26.96875 68.027344 -27.230469 67.070312 -27.230469 C 66.636719 -27.230469 66.203125 -27.140625 65.59375 -26.878906 C 64.808594 -26.53125 64.289062 -26.273438 64.199219 -26.273438 C 64.113281 -26.183594 62.894531 -26.011719 61.675781 -25.835938 C 61.15625 -25.835938 59.503906 -25.664062 57.851562 -25.402344 C 58.632812 -27.402344 58.71875 -27.835938 58.894531 -30.449219 L 59.15625 -35.753906 C 65.070312 -36.363281 73.59375 -36.972656 76.117188 -36.886719 C 79.511719 -36.710938 81.6875 -36.886719 82.46875 -37.320312 C 83.25 -37.839844 83.6875 -38.625 83.6875 -39.667969 C 83.6875 -41.410156 82.816406 -42.539062 80.640625 -43.757812 C 77.335938 -45.585938 75.507812 -46.367188 74.640625 -46.367188 C 74.378906 -46.367188 73.769531 -46.191406 72.898438 -45.933594 C 72.289062 -45.671875 70.027344 -45.234375 67.59375 -44.976562 C 66.460938 -44.886719 63.070312 -44.453125 59.414062 -43.929688 L 59.414062 -45.324219 L 59.503906 -48.195312 C 59.503906 -49.410156 59.15625 -49.933594 56.804688 -52.28125 C 58.980469 -53.328125 60.980469 -54.285156 61.589844 -54.71875 C 63.941406 -56.195312 65.503906 -57.066406 65.851562 -57.242188 C 67.941406 -58.109375 68.464844 -58.71875 68.464844 -60.113281 C 68.464844 -61.417969 68.375 -61.589844 64.722656 -64.894531 C 62.984375 -66.460938 62.546875 -66.722656 61.328125 -66.722656 C 59.328125 -66.722656 58.808594 -66.550781 58.371094 -65.503906 L 57.851562 -64.460938 C 57.675781 -64.027344 56.894531 -63.332031 55.761719 -62.632812 C 43.320312 -54.890625 37.667969 -51.152344 34.101562 -48.019531 L 34.363281 -47.585938 C 37.320312 -48.890625 39.058594 -49.410156 40.625 -49.410156 C 40.800781 -49.410156 41.582031 -49.324219 42.625 -49.238281 L 44.191406 -49.152344 C 45.671875 -49.152344 46.890625 -49.324219 49.671875 -49.933594 L 49.671875 -49.5 C 49.671875 -49.152344 49.757812 -48.976562 49.847656 -48.804688 L 50.109375 -48.105469 C 50.28125 -48.105469 50.367188 -47.0625 50.367188 -46.105469 Z M 50.367188 -42.453125 "/></g></g></g><g clip-path="url(#7fbc54d4d4)"><path fill="#d8ceba" d="M 84.816406 11.378906 L 82.507812 7.601562 C 82.308594 7.277344 81.976562 7.058594 81.601562 7.011719 C 81.21875 6.960938 80.84375 7.085938 80.570312 7.347656 L 69.886719 17.5625 L 81.113281 5.097656 C 81.570312 4.585938 81.535156 3.800781 81.035156 3.332031 L 77.886719 0.402344 C 77.632812 0.160156 77.277344 0.0390625 76.925781 0.0703125 C 76.566406 0.105469 76.246094 0.28125 76.03125 0.570312 L 54.4375 29.273438 C 52.375 29.847656 49.433594 30.445312 47.234375 29.261719 C 46.101562 28.652344 45.542969 28.210938 45.136719 27.882812 C 43.753906 26.796875 43.261719 26.925781 40.492188 27.652344 L 38.855469 28.085938 C 36.824219 28.621094 36.824219 28.621094 35.558594 28.585938 C 34.695312 28.570312 33.394531 28.539062 30.886719 28.597656 C 29.902344 28.621094 28.199219 28.660156 27.488281 28.621094 C 27.050781 28.085938 26.25 27.664062 24.289062 27.195312 C 19.871094 26.132812 16.816406 29.070312 15.496094 31.253906 L 15.007812 31.253906 C 9.109375 26.339844 3.601562 29.332031 1.472656 31.664062 C 1.449219 31.695312 1.441406 31.730469 1.417969 31.757812 C 1.359375 31.835938 1.3125 31.914062 1.273438 32 C 1.246094 32.0625 1.21875 32.121094 1.207031 32.1875 C 1.195312 32.21875 1.171875 32.25 1.167969 32.285156 C 1.109375 32.589844 -4.089844 62.453125 22.929688 70.9375 L 22.929688 72.523438 L 12.070312 72.523438 L 12.070312 75.042969 L 62.617188 75.042969 L 62.617188 72.523438 L 50.636719 72.523438 L 50.636719 70.9375 C 77.65625 62.453125 72.457031 32.589844 72.402344 32.285156 C 72.289062 31.6875 71.769531 31.253906 71.164062 31.253906 L 61.925781 31.253906 C 61.855469 31.207031 61.796875 31.164062 61.730469 31.113281 L 84.527344 13.027344 C 85.023438 12.632812 85.148438 11.921875 84.816406 11.378906 Z M 57.054688 31.136719 C 57.125 31.164062 57.214844 31.207031 57.308594 31.253906 L 56.628906 31.253906 C 56.792969 31.207031 56.949219 31.160156 57.054688 31.136719 Z M 23.703125 29.648438 C 24.953125 29.945312 25.398438 30.15625 25.542969 30.238281 C 26.078125 31.230469 26.703125 31.214844 30.945312 31.113281 C 33.386719 31.058594 34.65625 31.085938 35.496094 31.109375 C 37.125 31.152344 37.25 31.113281 39.492188 30.523438 L 41.132812 30.09375 C 42.203125 29.808594 43.0625 29.59375 43.210938 29.597656 C 43.269531 29.625 43.441406 29.757812 43.574219 29.863281 C 43.976562 30.183594 44.59375 30.65625 45.644531 31.253906 L 18.640625 31.253906 C 19.671875 30.164062 21.34375 29.082031 23.703125 29.648438 Z M 9.667969 31.253906 L 7.105469 31.253906 C 7.875 31.09375 8.734375 31.0625 9.667969 31.253906 Z M 70.082031 33.777344 C 70.777344 39.015625 72.410156 62.042969 49.03125 68.792969 C 48.496094 68.949219 48.121094 69.441406 48.121094 70.003906 L 48.121094 72.523438 L 25.445312 72.523438 L 25.445312 70.003906 C 25.445312 69.441406 25.074219 68.949219 24.535156 68.792969 C 1.199219 62.054688 2.800781 39.023438 3.484375 33.777344 Z M 77.199219 3.203125 L 78.414062 4.332031 L 65.882812 18.246094 Z M 67.539062 23.292969 L 81.175781 10.246094 L 82.085938 11.746094 Z M 67.539062 23.292969 " fill-opacity="1" fill-rule="nonzero"/></g></svg>