<svg xmlns="http://www.w3.org/2000/svg" xmlns:xlink="http://www.w3.org/1999/xlink" width="250" zoomAndPan="magnify" viewBox="0 0 187.5 74.999997" height="100" preserveAspectRatio="xMidYMid meet" version="1.0"><defs><g/><clipPath id="57ee33f83a"><path d="M 16 16 L 68.25 16 L 68.25 30 L 16 30 Z M 16 16 " clip-rule="nonzero"/></clipPath><clipPath id="6d7b09228a"><path d="M 7.5 48 L 60 48 L 60 70 L 7.5 70 Z M 7.5 48 " clip-rule="nonzero"/></clipPath><clipPath id="aac7cf0b27"><path d="M 14 5.519531 L 64 5.519531 L 64 27 L 14 27 Z M 14 5.519531 " clip-rule="nonzero"/></clipPath></defs><g clip-path="url(#57ee33f83a)"><path fill="#ffaf19" d="M 67.375 16.859375 C 66.5 16.546875 65.621094 16.578125 64.746094 16.816406 C 64.308594 16.9375 63.871094 16.992188 63.421875 16.980469 C 63.414062 16.992188 63.40625 17.003906 63.398438 17.015625 C 63.332031 17.066406 63.257812 17.105469 63.179688 17.132812 C 62.84375 17.164062 62.507812 17.195312 62.171875 17.230469 C 60.65625 17.5625 59.128906 17.847656 57.640625 18.296875 C 56.234375 18.726562 54.8125 19.097656 53.398438 19.496094 C 53.125 19.570312 52.859375 19.671875 52.574219 19.679688 C 52.523438 19.683594 52.472656 19.6875 52.417969 19.679688 C 52.289062 19.753906 52.152344 19.820312 52.019531 19.878906 C 51.234375 20.214844 50.375 20.3125 49.5625 20.558594 C 46.285156 21.542969 43.007812 22.53125 39.664062 23.273438 C 37.902344 23.664062 36.140625 24.027344 34.253906 24.429688 C 34.632812 23.265625 34.921875 22.199219 34.566406 21.101562 C 34.464844 20.785156 34.496094 20.253906 33.957031 20.382812 C 33.40625 20.515625 33.53125 21 33.695312 21.34375 C 34.046875 22.078125 33.808594 22.761719 33.652344 23.46875 C 33.570312 23.839844 33.710938 24.4375 33.515625 24.5625 C 33.066406 24.847656 32.480469 24.945312 31.9375 25.046875 C 29.257812 25.539062 26.648438 26.335938 24.007812 26.996094 C 22.089844 27.476562 20.175781 27.972656 18.253906 28.425781 C 17.542969 28.589844 16.867188 28.847656 16.195312 29.109375 C 16.171875 29.121094 16.148438 29.132812 16.121094 29.144531 C 16.121094 29.140625 16.117188 29.140625 16.117188 29.136719 L 16.113281 29.140625 L 16.121094 29.144531 C 16.117188 29.292969 16.117188 29.4375 16.113281 29.585938 C 16.816406 29.855469 17.5 30.03125 18.289062 29.828125 C 19.824219 29.433594 21.375 29.089844 22.933594 28.808594 C 27.203125 28.039062 31.449219 27.152344 35.6875 26.226562 C 37.804688 25.761719 39.902344 25.207031 42.007812 24.691406 C 44.195312 24.15625 46.371094 23.574219 48.574219 23.101562 C 49.761719 22.847656 50.90625 22.324219 52.160156 22.386719 C 52.167969 22.375 52.179688 22.359375 52.191406 22.34375 C 52.203125 22.328125 52.214844 22.316406 52.226562 22.296875 C 52.375 22.207031 52.542969 22.171875 52.71875 22.15625 C 52.921875 22.152344 53.128906 22.140625 53.332031 22.132812 C 54.417969 21.796875 55.546875 21.660156 56.648438 21.402344 C 59.210938 20.808594 61.792969 20.296875 64.371094 19.761719 C 64.59375 19.714844 64.824219 19.710938 65.054688 19.699219 C 65.085938 19.667969 65.121094 19.640625 65.152344 19.609375 C 65.257812 19.542969 65.375 19.503906 65.5 19.480469 C 65.570312 19.492188 65.640625 19.496094 65.710938 19.5 C 66.046875 19.324219 66.445312 19.3125 66.796875 19.175781 C 67.285156 18.984375 67.683594 18.714844 67.921875 18.242188 C 68.242188 17.617188 68.023438 17.089844 67.375 16.859375 Z M 67.375 16.859375 " fill-opacity="1" fill-rule="nonzero"/></g><path fill="#ffaf19" d="M 18.890625 45.59375 C 19.257812 45.765625 19.457031 45.503906 19.605469 45.207031 C 19.679688 45.058594 19.746094 44.902344 19.796875 44.742188 C 20.789062 41.5625 21.109375 38.367188 20.226562 35.082031 C 19.851562 33.699219 19.328125 32.289062 19.78125 30.792969 C 19.839844 30.589844 19.828125 30.328125 19.589844 30.195312 C 19.210938 29.984375 19.042969 30.335938 18.8125 30.507812 C 18.796875 30.664062 18.78125 30.816406 18.769531 30.972656 C 18.765625 31.585938 18.761719 32.203125 18.757812 32.816406 C 18.773438 33.027344 18.792969 33.238281 18.8125 33.449219 C 19.292969 34.765625 19.664062 36.121094 19.765625 37.507812 C 19.941406 40.011719 19.757812 42.492188 18.800781 44.859375 C 18.703125 45.097656 18.527344 45.425781 18.890625 45.59375 Z M 18.890625 45.59375 " fill-opacity="1" fill-rule="nonzero"/><g clip-path="url(#6d7b09228a)"><path fill="#ffaf19" d="M 58.859375 48.5625 C 58.644531 48.558594 58.429688 48.542969 58.21875 48.515625 C 55.183594 48.503906 52.148438 48.324219 49.101562 48.378906 C 47.167969 48.410156 45.210938 48.488281 43.257812 48.386719 C 40.023438 48.222656 36.773438 48.605469 33.535156 48.589844 C 30.554688 48.578125 27.558594 48.632812 24.585938 48.226562 C 24.523438 48.21875 24.460938 48.214844 24.394531 48.207031 C 23.871094 48.148438 23.34375 48.148438 22.820312 48.222656 C 22.796875 48.226562 22.769531 48.230469 22.746094 48.234375 C 21.660156 48.398438 20.574219 48.371094 19.488281 48.234375 C 19.472656 48.234375 19.457031 48.230469 19.441406 48.230469 C 19.171875 48.199219 18.902344 48.175781 18.632812 48.164062 C 18.054688 48.136719 17.476562 48.15625 16.898438 48.25 C 16.652344 48.292969 16.398438 48.34375 16.152344 48.320312 C 14.835938 48.210938 13.519531 48.285156 12.203125 48.351562 C 12.1875 48.363281 12.167969 48.367188 12.148438 48.378906 C 12.019531 48.457031 11.839844 48.472656 11.671875 48.449219 C 11.472656 48.460938 11.269531 48.441406 11.058594 48.398438 C 10.285156 48.421875 9.511719 48.425781 8.738281 48.355469 C 7.957031 48.289062 7.71875 48.660156 7.648438 49.375 C 7.496094 50.871094 8.269531 52.085938 8.847656 53.328125 C 9.824219 55.421875 11.285156 57.160156 13.035156 58.679688 C 14.304688 59.78125 15.652344 60.738281 17.078125 61.617188 C 17.527344 61.894531 18.019531 62.0625 18.46875 62.3125 C 18.574219 62.371094 18.675781 62.429688 18.773438 62.5 L 18.78125 62.503906 C 18.890625 62.546875 19 62.589844 19.109375 62.628906 C 20.601562 63.199219 22.089844 63.777344 23.59375 64.320312 C 24.1875 64.535156 24.816406 64.667969 25.4375 64.8125 C 25.785156 64.894531 25.929688 65.03125 25.730469 65.382812 C 25.285156 66.183594 24.84375 66.988281 24.398438 67.792969 C 24.320312 67.933594 24.242188 68.074219 24.164062 68.214844 C 24.304688 68.566406 23.75 68.917969 24.167969 69.265625 C 24.253906 69.285156 24.34375 69.308594 24.429688 69.335938 C 24.824219 69.457031 25.210938 69.628906 25.644531 69.59375 C 25.65625 69.59375 25.667969 69.59375 25.679688 69.59375 C 25.847656 69.582031 26.015625 69.574219 26.183594 69.566406 C 26.265625 69.511719 26.351562 69.472656 26.4375 69.445312 C 26.78125 69.332031 27.144531 69.398438 27.488281 69.425781 C 30.332031 69.65625 33.167969 69.878906 36.019531 69.960938 C 37.417969 70 38.808594 70.003906 40.203125 69.949219 C 41.566406 69.898438 41.910156 69.339844 41.476562 68.054688 C 41.191406 67.203125 40.652344 66.484375 40.359375 65.714844 C 43.710938 64.527344 46.898438 63.109375 49.9375 61.335938 C 51.816406 60.242188 53.300781 58.773438 54.550781 57.027344 C 54.683594 56.839844 54.785156 56.617188 54.984375 56.484375 C 55.011719 56.433594 55.042969 56.386719 55.078125 56.339844 C 55.101562 56.328125 55.121094 56.3125 55.144531 56.296875 C 55.421875 55.609375 55.917969 55.070312 56.382812 54.511719 C 57.496094 53.171875 58.179688 51.601562 58.792969 49.992188 C 58.863281 49.808594 58.914062 49.617188 59.039062 49.464844 C 59.046875 49.433594 59.050781 49.398438 59.058594 49.363281 C 59.09375 49.316406 59.132812 49.28125 59.175781 49.246094 C 59.257812 48.867188 59.152344 48.648438 58.859375 48.5625 Z M 57.683594 50.410156 C 57.117188 51.746094 56.464844 53.019531 55.5 54.148438 C 54.558594 55.246094 53.8125 56.507812 52.925781 57.65625 C 51.503906 59.492188 49.511719 60.578125 47.523438 61.667969 C 45.644531 62.699219 43.632812 63.445312 41.675781 64.316406 C 41.226562 64.515625 40.710938 64.566406 40.226562 64.699219 C 39.207031 64.972656 39.101562 65.195312 39.574219 66.183594 C 39.882812 66.839844 40.3125 67.433594 40.53125 68.140625 C 40.785156 68.953125 40.726562 69.050781 39.867188 69.089844 C 35.949219 69.273438 32.058594 68.875 28.160156 68.582031 C 27.40625 68.523438 26.644531 68.566406 25.890625 68.578125 C 25.339844 68.589844 25.015625 68.585938 25.375 67.851562 C 25.773438 67.046875 26.257812 66.296875 26.640625 65.488281 C 27.128906 64.449219 27.011719 64.195312 25.925781 63.953125 C 22.191406 63.125 18.636719 61.777344 15.523438 59.566406 C 12.6875 57.554688 10.28125 55.050781 9.078125 51.632812 C 8.902344 51.132812 8.675781 50.652344 8.507812 50.152344 C 8.339844 49.660156 8.441406 49.320312 9.066406 49.339844 C 9.625 49.359375 10.1875 49.34375 10.746094 49.34375 C 11.695312 49.351562 12.648438 49.425781 13.574219 49.097656 C 13.726562 49.042969 13.914062 49.011719 14.070312 49.046875 C 16.308594 49.558594 18.570312 49.070312 20.8125 49.109375 C 23.992188 49.160156 27.167969 49.371094 30.351562 49.390625 C 34.324219 49.417969 38.292969 49.210938 42.261719 49.257812 C 44.863281 49.289062 47.472656 49.367188 50.070312 49.308594 C 52.394531 49.253906 54.710938 49.355469 57.03125 49.371094 C 57.992188 49.378906 58.070312 49.496094 57.683594 50.410156 Z M 57.683594 50.410156 " fill-opacity="1" fill-rule="nonzero"/></g><path fill="#ffaf19" d="M 46.460938 45.441406 C 46.375 45.617188 46.300781 45.816406 46.523438 45.964844 C 46.722656 46.09375 46.917969 46.046875 47.054688 45.890625 C 47.253906 45.65625 47.472656 45.421875 47.589844 45.144531 C 48.210938 43.671875 48.738281 42.179688 48.738281 40.539062 C 48.738281 39.011719 48.710938 37.488281 48.433594 35.980469 C 48.425781 35.9375 48.421875 35.898438 48.414062 35.855469 C 48.398438 35.695312 48.382812 35.53125 48.367188 35.371094 L 48.367188 35.359375 C 47.492188 33.453125 47.078125 31.523438 47.839844 29.527344 C 47.894531 29.386719 47.957031 29.242188 48.023438 29.097656 L 48.023438 29.101562 C 48.023438 29.0625 48.027344 29.027344 48.027344 28.988281 C 48.035156 28.699219 48.070312 28.417969 48.191406 28.160156 C 48.234375 28.0625 48.292969 27.972656 48.363281 27.882812 C 48.351562 27.839844 48.363281 27.800781 48.394531 27.765625 C 48.390625 27.738281 48.390625 27.714844 48.386719 27.6875 C 48.378906 27.429688 48.507812 27.203125 48.585938 26.960938 C 48.839844 26.164062 49.117188 25.363281 49.027344 24.503906 C 48.992188 24.195312 48.914062 23.808594 48.550781 23.816406 C 48.136719 23.820312 48.035156 24.199219 48.074219 24.5625 C 48.175781 25.546875 47.820312 26.429688 47.519531 27.332031 C 46.660156 29.890625 46.300781 32.375 47.222656 35.101562 C 48.109375 37.71875 48.238281 40.535156 47.367188 43.277344 C 47.128906 44.027344 46.8125 44.742188 46.460938 45.441406 Z M 46.460938 45.441406 " fill-opacity="1" fill-rule="nonzero"/><path fill="#ffaf19" d="M 39.628906 46.382812 C 39.628906 46.464844 39.632812 46.550781 39.65625 46.640625 C 39.875 46.640625 40.09375 46.644531 40.308594 46.644531 C 40.351562 46.570312 40.390625 46.492188 40.433594 46.417969 C 41.542969 44.429688 42.3125 42.367188 42.410156 40.011719 C 42.507812 37.601562 42.257812 35.335938 41.097656 33.203125 C 40.527344 32.15625 40.5 31.003906 40.609375 29.863281 C 40.707031 28.859375 41.054688 27.914062 41.554688 27.027344 C 41.714844 26.746094 41.847656 26.34375 41.480469 26.136719 C 41.109375 25.925781 40.910156 26.300781 40.789062 26.558594 C 40.011719 28.1875 39.417969 29.824219 39.738281 31.71875 C 39.945312 32.941406 40.625 33.933594 40.96875 35.070312 C 42.023438 38.539062 41.78125 41.90625 40.132812 45.160156 C 39.933594 45.550781 39.625 45.917969 39.628906 46.382812 Z M 39.628906 46.382812 " fill-opacity="1" fill-rule="nonzero"/><path fill="#ffaf19" d="M 35.988281 45.929688 C 36.351562 46.089844 36.511719 45.753906 36.679688 45.484375 C 37.011719 44.941406 37.214844 44.347656 37.421875 43.757812 C 37.484375 43.589844 37.542969 43.417969 37.605469 43.25 C 37.621094 43.03125 37.636719 42.8125 37.648438 42.59375 C 37.65625 42.550781 37.660156 42.503906 37.664062 42.457031 C 37.890625 40.644531 37.714844 38.828125 37.65625 37.011719 C 37.652344 36.964844 37.652344 36.917969 37.648438 36.871094 C 37.636719 36.539062 37.621094 36.210938 37.609375 35.878906 C 37.550781 35.566406 37.484375 35.25 37.414062 34.9375 C 36.996094 33.066406 36.484375 31.203125 36.929688 29.238281 C 37.027344 28.816406 37.179688 28.441406 37.386719 28.089844 C 37.457031 27.972656 37.53125 27.859375 37.609375 27.746094 C 37.609375 27.648438 37.609375 27.550781 37.609375 27.449219 C 37.550781 27.417969 37.5 27.390625 37.445312 27.367188 C 36.761719 27.066406 36.488281 27.699219 36.320312 28.144531 C 35.980469 29.050781 35.835938 29.984375 35.84375 30.921875 L 35.84375 30.925781 C 35.847656 31.601562 35.925781 32.277344 36.074219 32.945312 C 36.519531 34.945312 36.800781 36.960938 36.914062 38.996094 C 37.027344 41.097656 36.886719 43.183594 35.925781 45.128906 C 35.804688 45.375 35.578125 45.746094 35.988281 45.929688 Z M 35.988281 45.929688 " fill-opacity="1" fill-rule="nonzero"/><path fill="#ffaf19" d="M 31.878906 45.730469 C 31.65625 45.96875 31.550781 46.222656 31.574219 46.527344 C 31.578125 46.5625 31.574219 46.597656 31.582031 46.632812 C 31.644531 46.640625 31.707031 46.644531 31.769531 46.640625 C 32.636719 46.636719 32.9375 45.890625 33.226562 45.257812 C 33.941406 43.699219 34.277344 42.085938 34.402344 40.445312 C 34.402344 40.429688 34.402344 40.417969 34.402344 40.40625 C 34.496094 39.164062 34.460938 37.902344 34.375 36.636719 C 34.296875 35.507812 33.875 34.496094 33.453125 33.453125 C 32.894531 32.058594 32.816406 30.597656 33.382812 29.183594 C 33.441406 29.039062 33.503906 28.898438 33.574219 28.753906 C 33.578125 28.648438 33.585938 28.546875 33.589844 28.441406 C 33.558594 28.402344 33.527344 28.367188 33.496094 28.339844 C 33.242188 28.101562 32.996094 28.171875 32.78125 28.472656 C 32.648438 28.660156 32.53125 28.855469 32.414062 29.054688 C 32.363281 29.144531 32.3125 29.234375 32.257812 29.320312 C 32.242188 29.421875 32.226562 29.523438 32.210938 29.625 C 32.210938 29.738281 32.210938 29.851562 32.210938 29.964844 C 32.210938 30.773438 32.210938 31.585938 32.210938 32.398438 C 32.210938 32.484375 32.207031 32.570312 32.207031 32.65625 C 32.222656 32.816406 32.234375 32.980469 32.246094 33.144531 C 32.304688 33.230469 32.355469 33.320312 32.40625 33.410156 C 33.15625 34.679688 33.503906 36.0625 33.574219 37.542969 C 33.675781 39.648438 33.492188 41.71875 32.894531 43.742188 C 32.683594 44.464844 32.40625 45.167969 31.878906 45.730469 Z M 31.878906 45.730469 " fill-opacity="1" fill-rule="nonzero"/><path fill="#ffaf19" d="M 25.769531 29.648438 C 25.414062 29.554688 25.257812 29.789062 25.136719 30.136719 C 24.621094 31.597656 24.777344 33.074219 25.363281 34.402344 C 26.4375 36.832031 26.847656 39.316406 26.484375 41.921875 C 26.335938 42.996094 26.085938 44.078125 25.210938 44.871094 C 25.027344 45.035156 24.679688 45.25 25.03125 45.542969 C 25.296875 45.761719 25.59375 45.699219 25.867188 45.464844 C 26.230469 45.152344 26.433594 44.722656 26.695312 44.339844 C 26.75 44.265625 26.800781 44.191406 26.859375 44.121094 C 26.875 44.066406 26.886719 44.007812 26.902344 43.949219 C 26.925781 43.882812 26.941406 43.816406 26.964844 43.75 C 27.894531 40.671875 27.691406 37.632812 26.429688 34.691406 C 25.8125 33.257812 25.710938 31.84375 25.972656 30.355469 C 26.023438 30.082031 26.144531 29.746094 25.769531 29.648438 Z M 25.769531 29.648438 " fill-opacity="1" fill-rule="nonzero"/><path fill="#ffaf19" d="M 29.5625 41.292969 C 29.550781 41.617188 29.535156 41.941406 29.519531 42.261719 C 29.515625 42.304688 29.511719 42.347656 29.507812 42.386719 C 29.445312 43.152344 29.320312 43.90625 28.910156 44.574219 C 28.773438 44.792969 28.371094 44.949219 28.703125 45.226562 C 28.964844 45.441406 29.339844 45.40625 29.625 45.136719 C 30.015625 44.765625 30.097656 44.25 30.195312 43.765625 C 30.792969 40.84375 30.71875 37.929688 30.113281 35.011719 C 29.730469 33.179688 29.726562 31.335938 30.292969 29.523438 C 30.390625 29.222656 30.707031 28.890625 30.210938 28.6875 C 29.707031 28.484375 29.605469 28.875 29.480469 29.238281 C 28.894531 30.953125 28.976562 32.710938 29.113281 34.476562 C 29.183594 35.398438 29.566406 36.265625 29.527344 37.203125 C 29.527344 37.203125 29.527344 37.207031 29.527344 37.207031 C 29.535156 37.316406 29.542969 37.425781 29.550781 37.535156 C 29.808594 38.785156 29.835938 40.039062 29.5625 41.292969 Z M 29.5625 41.292969 " fill-opacity="1" fill-rule="nonzero"/><g clip-path="url(#aac7cf0b27)"><path fill="#ffaf19" d="M 15.859375 26.902344 C 16.152344 26.84375 16.429688 26.691406 16.710938 26.570312 C 17.605469 26.179688 18.480469 25.746094 19.390625 25.40625 C 23.019531 24.058594 26.636719 22.6875 30.265625 21.335938 C 33.8125 20.015625 37.246094 18.378906 40.789062 17.050781 C 45.773438 15.179688 50.609375 12.949219 55.5625 11.015625 C 57.28125 10.34375 58.988281 9.636719 60.699219 8.945312 C 60.722656 8.917969 60.746094 8.890625 60.773438 8.867188 C 60.792969 8.847656 60.808594 8.824219 60.832031 8.804688 C 60.9375 8.753906 61.046875 8.71875 61.15625 8.699219 C 61.722656 8.386719 62.34375 8.167969 62.8125 7.6875 C 63.171875 7.316406 63.582031 6.925781 63.242188 6.386719 C 62.894531 5.835938 62.402344 5.539062 61.679688 5.828125 C 61.328125 5.964844 60.984375 6.191406 60.582031 6.175781 C 60.5625 6.199219 60.542969 6.21875 60.523438 6.246094 C 60.457031 6.292969 60.386719 6.324219 60.308594 6.347656 C 60.21875 6.339844 60.136719 6.34375 60.046875 6.34375 C 58.777344 6.953125 57.511719 7.574219 56.226562 8.15625 C 53.777344 9.261719 51.3125 10.34375 48.851562 11.433594 C 48.734375 11.484375 48.605469 11.515625 48.476562 11.546875 C 48.445312 11.589844 48.410156 11.628906 48.363281 11.664062 C 48.296875 11.679688 48.226562 11.699219 48.15625 11.714844 C 47.003906 12.460938 45.648438 12.742188 44.402344 13.269531 C 43.523438 13.644531 42.695312 14.167969 41.726562 14.300781 C 41.710938 14.304688 41.695312 14.308594 41.675781 14.308594 L 41.675781 14.300781 C 41.625 14.34375 41.566406 14.375 41.511719 14.414062 C 40.683594 14.976562 39.679688 15.117188 38.78125 15.523438 C 35.226562 17.136719 31.582031 18.527344 27.953125 19.960938 C 27.875 19.992188 27.789062 20.003906 27.703125 20.011719 C 27.648438 20.019531 27.597656 20.023438 27.542969 20.03125 L 27.546875 20.027344 C 27.496094 20.058594 27.441406 20.089844 27.390625 20.125 C 26.265625 20.832031 24.980469 21.179688 23.761719 21.652344 C 23.089844 21.914062 22.433594 22.28125 21.695312 22.351562 C 21.675781 22.355469 21.660156 22.359375 21.644531 22.359375 C 21.605469 22.386719 21.5625 22.398438 21.515625 22.390625 C 21.390625 22.453125 21.265625 22.511719 21.140625 22.574219 C 19.257812 23.480469 17.378906 24.390625 15.398438 25.0625 C 14.765625 25.277344 14.558594 25.757812 14.660156 26.292969 C 14.773438 26.894531 15.320312 27.011719 15.859375 26.902344 Z M 15.859375 26.902344 " fill-opacity="1" fill-rule="nonzero"/></g><path fill="#ffaf19" d="M 45.089844 16.777344 C 44.9375 16.675781 44.789062 16.621094 44.628906 16.714844 C 44.46875 16.804688 44.363281 17.007812 44.429688 17.136719 C 44.992188 18.179688 44.742188 19.316406 44.851562 20.410156 C 44.90625 20.980469 45.191406 21.0625 45.558594 20.738281 C 45.59375 20.707031 45.628906 20.679688 45.664062 20.640625 C 45.671875 19.648438 45.675781 18.65625 45.683594 17.667969 C 45.601562 17.582031 45.546875 17.484375 45.496094 17.378906 C 45.386719 17.160156 45.308594 16.925781 45.089844 16.777344 Z M 45.089844 16.777344 " fill-opacity="1" fill-rule="nonzero"/><path fill="#ffaf19" d="M 43.074219 44.882812 C 42.925781 45.132812 42.824219 45.5625 43.113281 45.730469 C 43.492188 45.953125 43.683594 45.527344 43.894531 45.28125 C 43.960938 45.199219 43.976562 45.074219 44.027344 44.976562 C 45.125 42.832031 45.253906 40.476562 45.46875 38.730469 C 45.539062 36.0625 44.949219 34.066406 44.570312 32.039062 C 44.222656 30.207031 44.132812 28.421875 45.226562 26.777344 C 45.429688 26.472656 45.394531 26.136719 45.355469 25.804688 C 45.332031 25.628906 45.222656 25.492188 45.027344 25.480469 C 44.867188 25.46875 44.753906 25.570312 44.710938 25.707031 C 44.449219 26.566406 43.90625 27.289062 43.640625 28.15625 C 43.097656 29.945312 43.589844 31.664062 43.917969 33.375 C 44.25 35.105469 44.78125 36.828125 44.605469 38.582031 C 44.390625 40.734375 44.203125 42.929688 43.074219 44.882812 Z M 43.074219 44.882812 " fill-opacity="1" fill-rule="nonzero"/><path fill="#ffaf19" d="M 21.804688 45.613281 C 21.792969 45.808594 21.773438 46.027344 22.027344 46.097656 C 22.210938 46.144531 22.359375 46.042969 22.460938 45.902344 C 22.757812 45.492188 23.011719 45.054688 23.144531 44.5625 C 23.691406 42.550781 23.671875 40.480469 23.433594 38.460938 C 23.121094 35.808594 22.316406 33.199219 23.160156 30.464844 C 23.148438 30.324219 23.210938 30.101562 22.972656 30.003906 C 22.730469 29.902344 22.535156 29.996094 22.394531 30.203125 C 22.253906 30.414062 22.203125 30.65625 22.128906 30.898438 C 21.441406 33.117188 22.054688 35.285156 22.363281 37.460938 C 22.738281 40.082031 23.003906 42.683594 21.882812 45.207031 C 21.828125 45.328125 21.816406 45.476562 21.804688 45.613281 Z M 21.804688 45.613281 " fill-opacity="1" fill-rule="nonzero"/><path fill="#ffaf19" d="M 41.816406 21.921875 C 42.324219 21.933594 42.304688 21.289062 42.359375 20.839844 C 42.472656 19.921875 42.046875 19.160156 41.671875 18.378906 C 41.523438 18.0625 41.339844 17.710938 40.9375 17.886719 C 40.488281 18.078125 40.71875 18.4375 40.859375 18.746094 C 41.171875 19.429688 41.585938 20.082031 41.460938 20.964844 C 41.605469 21.246094 41.214844 21.914062 41.816406 21.921875 Z M 41.816406 21.921875 " fill-opacity="1" fill-rule="nonzero"/><path fill="#ffaf19" d="M 48.40625 19.3125 C 48.40625 19.3125 48.410156 19.316406 48.410156 19.316406 L 48.410156 19.3125 Z M 48.40625 19.3125 " fill-opacity="1" fill-rule="nonzero"/><path fill="#ffaf19" d="M 48.789062 19.339844 C 48.914062 19.328125 49.019531 19.261719 49.0625 19.035156 C 49.28125 17.980469 49.167969 16.972656 48.640625 16.03125 C 48.527344 15.832031 48.359375 15.558594 48.042969 15.742188 C 47.757812 15.910156 47.707031 16.148438 47.875 16.453125 C 48.324219 17.285156 48.347656 18.195312 48.398438 19.105469 C 48.402344 19.171875 48.402344 19.238281 48.40625 19.304688 L 48.410156 19.3125 C 48.535156 19.316406 48.671875 19.351562 48.789062 19.339844 Z M 48.789062 19.339844 " fill-opacity="1" fill-rule="nonzero"/><path fill="#ffaf19" d="M 37.890625 22.9375 C 38.105469 22.929688 38.261719 22.710938 38.289062 22.464844 C 38.34375 22.023438 38.394531 21.582031 38.453125 21.097656 C 38.394531 20.699219 38.367188 20.253906 38.253906 19.828125 C 38.1875 19.5625 37.992188 19.324219 37.648438 19.375 C 37.429688 19.410156 37.25 19.59375 37.316406 19.78125 C 37.613281 20.648438 37.558594 21.519531 37.488281 22.40625 C 37.46875 22.652344 37.589844 22.949219 37.890625 22.9375 Z M 37.890625 22.9375 " fill-opacity="1" fill-rule="nonzero"/><path fill="#ffaf19" d="M 27.550781 23.558594 C 27.535156 23.335938 27.519531 23.089844 27.210938 23.066406 C 26.898438 23.046875 26.839844 23.277344 26.820312 23.503906 C 26.761719 24.152344 26.617188 24.769531 26.378906 25.375 C 26.292969 25.597656 26.328125 25.832031 26.550781 25.96875 C 26.828125 26.136719 26.984375 25.878906 27.097656 25.726562 C 27.4375 25.265625 27.59375 24.726562 27.554688 24.09375 C 27.554688 23.949219 27.566406 23.753906 27.550781 23.558594 Z M 27.550781 23.558594 " fill-opacity="1" fill-rule="nonzero"/><path fill="#ffaf19" d="M 30.167969 24.539062 C 30.714844 24.648438 30.78125 24.09375 30.882812 23.699219 C 30.925781 23.542969 30.890625 23.367188 30.890625 23.199219 L 30.902344 23.199219 L 30.902344 22.777344 C 30.902344 22.410156 30.726562 22.167969 30.351562 22.203125 C 29.933594 22.238281 29.921875 22.523438 30.003906 22.878906 C 30.058594 23.113281 30.007812 23.378906 29.980469 23.625 C 29.945312 23.960938 29.648438 24.433594 30.167969 24.539062 Z M 30.167969 24.539062 " fill-opacity="1" fill-rule="nonzero"/><path fill="#ffaf19" d="M 23.304688 24.742188 C 22.539062 24.855469 22.882812 25.589844 22.675781 26.019531 C 22.570312 26.246094 22.742188 26.613281 23.039062 26.507812 C 23.59375 26.316406 23.582031 25.738281 23.671875 25.347656 C 23.675781 24.992188 23.648438 24.6875 23.304688 24.742188 Z M 23.304688 24.742188 " fill-opacity="1" fill-rule="nonzero"/><path fill="#ffaf19" d="M 20.109375 25.695312 C 19.546875 25.769531 19.570312 26.324219 19.46875 26.734375 C 19.417969 26.945312 19.4375 27.25 19.738281 27.242188 C 20.328125 27.226562 20.34375 26.699219 20.46875 26.378906 C 20.5 26 20.492188 25.640625 20.109375 25.695312 Z M 20.109375 25.695312 " fill-opacity="1" fill-rule="nonzero"/><g fill="#ffaf19" fill-opacity="1"><g transform="translate(71.399736, 29.006991)"><g><path d="M 9.390625 -16.089844 L 8.839844 -15.511719 C 8.566406 -15.15625 8.347656 -14.660156 8.097656 -13.972656 C 7.496094 -11.914062 7.496094 -11.886719 7.246094 -8.976562 C 7.027344 -7.714844 7.027344 -7.714844 7.027344 -7.578125 C 7.027344 -6.671875 8.429688 -5.4375 9.445312 -5.4375 C 9.828125 -5.4375 10.15625 -5.65625 10.898438 -6.453125 C 11.832031 -7.441406 12.464844 -7.988281 13.121094 -8.429688 C 14.222656 -9.140625 15.566406 -9.582031 16.609375 -9.582031 C 17.898438 -9.582031 18.914062 -8.457031 18.914062 -7.054688 C 18.914062 -5.1875 17.597656 -4.007812 13.507812 -2.167969 C 11.503906 -1.316406 10.210938 -0.410156 9.363281 0.6875 L 9.445312 0.769531 C 10.515625 0.0820312 11.089844 -0.109375 11.96875 -0.109375 C 12.160156 -0.109375 12.160156 -0.109375 13.917969 0.0546875 L 15.265625 -0.136719 L 15.675781 -0.191406 C 16.089844 -0.300781 16.472656 -0.4375 16.882812 -0.578125 C 17.160156 -0.660156 17.324219 -0.714844 17.378906 -0.742188 L 17.734375 -0.960938 L 18.367188 -1.207031 L 18.695312 -1.511719 C 19.191406 -1.59375 19.246094 -1.621094 19.957031 -2.167969 C 21.441406 -3.320312 22.210938 -4.859375 22.210938 -6.589844 C 22.210938 -9.636719 19.792969 -11.722656 16.308594 -11.722656 C 14.25 -11.722656 12.65625 -11.171875 9.773438 -9.445312 C 9.800781 -10.40625 9.828125 -10.570312 9.910156 -11.339844 C 9.992188 -12.328125 10.019531 -12.683594 10.019531 -13.289062 C 10.019531 -13.425781 10.019531 -13.753906 9.992188 -14.195312 C 9.964844 -14.46875 9.964844 -14.769531 9.964844 -14.90625 C 9.964844 -15.785156 10.351562 -16.144531 11.75 -16.527344 C 12.160156 -16.636719 12.160156 -16.636719 13.726562 -16.828125 L 15.097656 -17.132812 C 16.664062 -17.433594 16.664062 -17.433594 16.9375 -17.652344 C 17.214844 -17.871094 17.378906 -18.257812 17.378906 -18.640625 C 17.378906 -19.164062 17.078125 -19.628906 16.472656 -20.125 C 16.144531 -20.398438 15.867188 -20.480469 14.851562 -20.507812 C 13.589844 -20.5625 12.191406 -20.890625 11.859375 -21.277344 C 11.421875 -21.6875 11.117188 -21.9375 11.007812 -21.9375 C 10.898438 -21.9375 10.761719 -21.632812 10.761719 -21.332031 C 10.761719 -20.371094 11.0625 -19.820312 12.160156 -18.695312 C 11.585938 -18.3125 11.394531 -18.148438 10.84375 -17.570312 C 10.570312 -17.269531 10.269531 -16.964844 9.964844 -16.664062 Z M 9.390625 -16.089844 "/></g></g></g><g fill="#ffaf19" fill-opacity="1"><g transform="translate(98.848707, 29.006991)"><g><path d="M 12.683594 1.484375 C 13.589844 0.714844 14.082031 0.523438 15.070312 0.523438 L 15.484375 0.328125 L 16.910156 -0.0273438 L 18.695312 -0.90625 C 19.875 -1.371094 19.875 -1.371094 20.152344 -1.59375 C 20.726562 -2.003906 21.441406 -2.773438 22.019531 -3.652344 C 22.839844 -4.832031 23.144531 -5.738281 23.144531 -7.054688 C 23.144531 -9.058594 22.238281 -10.816406 20.644531 -11.886719 C 19.957031 -12.355469 19.273438 -12.628906 18.230469 -12.875 C 18.257812 -13.039062 18.257812 -13.121094 18.257812 -13.179688 C 18.257812 -13.5625 18.007812 -13.917969 17.40625 -14.414062 C 17.019531 -14.742188 16.746094 -14.90625 16.554688 -14.90625 C 16.335938 -14.90625 16.089844 -14.769531 16.089844 -14.660156 C 16.089844 -14.605469 16.089844 -14.550781 16.117188 -14.496094 C 16.144531 -14.414062 16.144531 -14.359375 16.144531 -14.332031 C 16.144531 -14.082031 15.867188 -13.507812 15.539062 -12.984375 C 14.027344 -12.902344 13.121094 -12.765625 11.996094 -12.410156 C 12.050781 -13.34375 12.078125 -13.808594 12.246094 -14.742188 C 14.332031 -15.210938 15.675781 -15.59375 17.046875 -16.117188 C 18.613281 -16.691406 19.054688 -17.046875 19.054688 -17.734375 C 19.054688 -18.203125 18.859375 -18.476562 18.230469 -18.777344 C 17.105469 -19.328125 17.105469 -19.328125 16.882812 -19.328125 C 16.71875 -19.328125 16.5 -19.21875 15.921875 -18.914062 C 14.988281 -18.367188 14.054688 -17.980469 12.792969 -17.597656 C 13.039062 -18.585938 13.148438 -18.96875 13.371094 -19.628906 C 13.535156 -20.125 13.589844 -20.34375 13.589844 -20.480469 C 13.589844 -20.890625 13.316406 -21.359375 12.710938 -22.046875 C 12.410156 -22.375 12.191406 -22.511719 11.96875 -22.511719 C 11.585938 -22.511719 11.339844 -22.128906 10.980469 -21.003906 C 10.597656 -19.820312 10.269531 -18.394531 9.992188 -16.9375 C 8.8125 -16.691406 8.042969 -16.582031 6.285156 -16.417969 C 5.269531 -16.335938 5.160156 -16.28125 5.160156 -15.976562 C 5.160156 -15.648438 5.324219 -15.347656 5.710938 -14.933594 C 6.3125 -14.277344 6.835938 -14 7.414062 -14 C 7.714844 -14 8.402344 -14.082031 9.636719 -14.277344 C 9.582031 -13.644531 9.582031 -13.5625 9.554688 -13.039062 C 9.554688 -12.738281 9.527344 -12.21875 9.5 -11.476562 C 6.671875 -9.773438 5.792969 -9.085938 4.695312 -7.796875 C 4.199219 -7.191406 4.035156 -6.890625 4.035156 -6.644531 C 4.035156 -6.175781 4.117188 -6.066406 4.804688 -5.546875 C 5.351562 -5.1875 5.628906 -4.695312 6.480469 -2.691406 C 7.027344 -1.316406 7.164062 -1.207031 8.070312 -1.207031 C 8.949219 -1.207031 10.074219 -1.757812 11.558594 -2.964844 C 12.21875 -2.25 12.519531 -2.058594 12.957031 -2.058594 C 13.121094 -2.058594 13.289062 -2.140625 13.398438 -2.25 C 13.5625 -2.445312 13.726562 -2.800781 13.726562 -2.964844 C 13.726562 -3.128906 13.699219 -3.183594 13.371094 -3.734375 C 13.289062 -3.84375 13.261719 -3.925781 12.984375 -4.363281 C 14.578125 -6.011719 16.03125 -8.207031 17.1875 -10.679688 C 18.996094 -10.378906 20.042969 -9.222656 20.042969 -7.496094 C 20.042969 -6.285156 19.601562 -5.160156 18.695312 -4.035156 C 17.925781 -3.074219 17.351562 -2.554688 15.757812 -1.316406 C 14.46875 -0.355469 14.082031 -0.0273438 12.574219 1.398438 Z M 10.074219 -4.941406 C 9.195312 -4.199219 8.730469 -3.898438 8.457031 -3.898438 C 8.152344 -3.898438 7.742188 -4.144531 7.027344 -4.777344 C 6.535156 -5.1875 6.3125 -5.519531 6.3125 -5.765625 C 6.3125 -6.148438 6.699219 -6.589844 7.714844 -7.523438 C 8.402344 -8.125 8.511719 -8.179688 9.445312 -8.757812 L 9.636719 -8.839844 C 9.910156 -6.863281 10.019531 -6.371094 10.433594 -5.242188 Z M 12.300781 -7.136719 C 12.078125 -8.375 12.023438 -8.894531 11.941406 -9.910156 C 12.683594 -10.242188 12.875 -10.296875 14.359375 -10.597656 C 13.589844 -9.058594 13.261719 -8.484375 12.300781 -7.136719 Z M 12.300781 -7.136719 "/></g></g></g><g fill="#ffaf19" fill-opacity="1"><g transform="translate(126.297678, 29.006991)"><g><path d="M 0.851562 0.550781 C 1.566406 0.164062 1.921875 0 2.386719 -0.0820312 C 5.105469 -0.355469 6.5625 -1.234375 9.445312 -4.335938 C 9.882812 -4.089844 9.882812 -4.089844 11.144531 -3.265625 C 12.328125 -2.5 12.957031 -2.167969 15.15625 -1.015625 C 17.980469 0.4375 19.710938 1.152344 20.453125 1.152344 C 21.140625 1.152344 21.796875 1.042969 23.0625 0.742188 C 23.773438 0.550781 24.707031 0.273438 24.902344 0.21875 L 27.644531 -0.878906 C 27.671875 -0.878906 27.8125 -0.933594 28.003906 -0.988281 L 28.058594 -1.207031 C 27.8125 -1.34375 27.535156 -1.453125 27.507812 -1.484375 C 27.097656 -1.566406 26.710938 -1.675781 26.300781 -1.785156 C 25.777344 -1.921875 25.230469 -2.058594 24.679688 -2.195312 C 24.460938 -2.25 23.582031 -2.386719 22.675781 -2.5 L 21.222656 -2.664062 L 19.820312 -2.828125 C 18.941406 -2.964844 18.148438 -3.15625 17.1875 -3.488281 C 14.441406 -4.449219 13.808594 -4.695312 11.804688 -5.65625 L 10.898438 -6.09375 C 11.199219 -6.507812 11.476562 -6.917969 11.558594 -7.054688 C 12.132812 -7.960938 12.519531 -8.59375 12.574219 -8.648438 C 13.039062 -9.222656 13.148438 -9.390625 13.148438 -9.636719 C 13.148438 -9.964844 12.929688 -10.242188 12.160156 -10.789062 C 11.53125 -11.230469 11.285156 -11.339844 11.0625 -11.339844 C 10.925781 -11.339844 10.734375 -11.285156 10.542969 -11.171875 C 9.882812 -10.761719 9.746094 -10.707031 8.8125 -10.433594 C 8.894531 -10.679688 8.976562 -10.871094 9.03125 -10.980469 C 9.058594 -11.0625 9.085938 -11.117188 9.085938 -11.144531 C 9.085938 -11.257812 9.03125 -11.339844 8.675781 -11.640625 C 9.058594 -11.804688 9.746094 -11.996094 11.3125 -12.273438 C 12.382812 -12.382812 12.902344 -12.519531 13.039062 -12.710938 C 13.234375 -12.929688 13.316406 -13.121094 13.316406 -13.34375 C 13.316406 -13.589844 13.179688 -13.808594 12.957031 -13.917969 C 12.519531 -14.140625 11.640625 -14.414062 11.3125 -14.414062 C 11.144531 -14.414062 10.871094 -14.359375 10.460938 -14.222656 L 9.527344 -14.027344 L 9.582031 -14.632812 C 10.046875 -14.769531 10.210938 -14.796875 10.625 -14.878906 C 11.421875 -15.015625 11.476562 -15.042969 11.585938 -15.070312 C 11.96875 -15.238281 12.191406 -15.539062 12.191406 -15.894531 C 12.191406 -16.144531 11.996094 -16.363281 11.558594 -16.582031 C 11.089844 -16.855469 10.734375 -16.964844 10.515625 -16.964844 C 10.460938 -16.964844 10.324219 -16.964844 10.128906 -16.910156 C 10.074219 -16.910156 9.9375 -16.882812 9.800781 -16.855469 L 9.800781 -17.460938 C 10.296875 -17.542969 10.761719 -17.625 10.898438 -17.652344 C 11.339844 -17.734375 11.640625 -17.789062 11.722656 -17.789062 C 12.464844 -17.925781 12.792969 -18.175781 12.792969 -18.667969 C 12.792969 -18.996094 12.546875 -19.273438 12.050781 -19.519531 C 11.75 -19.683594 11.117188 -19.875 10.898438 -19.875 C 10.816406 -19.875 10.652344 -19.847656 10.433594 -19.792969 C 10.351562 -19.765625 10.15625 -19.738281 9.9375 -19.683594 C 9.9375 -20.070312 9.964844 -20.371094 9.992188 -20.535156 C 10.019531 -20.78125 10.046875 -20.917969 10.046875 -21.003906 C 10.046875 -21.359375 9.746094 -21.742188 9.363281 -21.90625 C 8.292969 -22.347656 8.125 -22.429688 7.851562 -22.429688 C 7.523438 -22.429688 7.273438 -22.238281 7.027344 -21.796875 C 6.835938 -21.496094 6.835938 -21.46875 6.835938 -21.414062 C 6.835938 -21.359375 6.917969 -21.277344 7 -21.25 C 7.273438 -21.167969 7.273438 -21.167969 7.300781 -21.113281 C 7.332031 -21.003906 7.332031 -20.835938 7.332031 -20.589844 L 7.332031 -19.929688 C 7.300781 -19.765625 7.300781 -19.464844 7.300781 -18.996094 C 5.546875 -18.449219 4.613281 -18.148438 4.476562 -18.066406 C 4.199219 -17.925781 4.035156 -17.707031 4.035156 -17.488281 C 4.035156 -17.019531 4.941406 -16.527344 5.765625 -16.527344 C 5.929688 -16.527344 6.148438 -16.554688 6.425781 -16.636719 L 7 -16.800781 C 7.027344 -16.800781 7.136719 -16.828125 7.332031 -16.855469 L 7.300781 -16.199219 L 6.507812 -15.976562 C 5.269531 -15.621094 5.269531 -15.621094 5.132812 -15.566406 C 4.777344 -15.429688 4.640625 -15.265625 4.640625 -15.070312 C 4.640625 -14.824219 4.886719 -14.550781 5.351562 -14.359375 C 5.792969 -14.167969 6.257812 -14.027344 6.589844 -14.027344 C 6.753906 -14.027344 6.972656 -14.054688 7.414062 -14.109375 L 7.414062 -13.507812 C 4.859375 -12.929688 4.089844 -12.738281 2.855469 -12.328125 C 1.675781 -11.941406 1.566406 -11.859375 1.566406 -11.503906 C 1.566406 -11.089844 2.964844 -10.269531 3.652344 -10.269531 C 3.980469 -10.269531 4.394531 -10.351562 4.859375 -10.515625 L 5.601562 -10.761719 C 5.710938 -10.816406 6.011719 -10.898438 6.453125 -11.035156 C 5.1875 -9.222656 4.476562 -8.207031 4.0625 -7.6875 C 3.542969 -7.027344 3.046875 -6.398438 2.554688 -5.765625 C 2.359375 -5.519531 1.976562 -4.996094 1.453125 -4.28125 L 1.621094 -4.144531 C 2.167969 -4.667969 2.609375 -4.96875 3.15625 -5.160156 C 3.652344 -5.324219 4.144531 -5.492188 4.613281 -5.65625 C 4.695312 -5.683594 5.023438 -5.929688 5.492188 -6.34375 C 5.546875 -6.371094 5.683594 -6.507812 5.847656 -6.617188 L 7.386719 -5.628906 C 4.804688 -2.664062 4.804688 -2.664062 2.222656 -0.769531 C 1.648438 -0.355469 1.398438 -0.164062 0.714844 0.355469 Z M 7.386719 -8.511719 C 7.605469 -8.402344 7.769531 -8.347656 7.878906 -8.347656 C 7.960938 -8.347656 8.070312 -8.375 8.207031 -8.429688 C 8.867188 -8.621094 9.085938 -8.675781 9.609375 -8.757812 C 9.195312 -8.015625 9.113281 -7.933594 8.675781 -7.246094 C 8.375 -7.414062 8.125 -7.523438 7.960938 -7.632812 C 7.632812 -7.824219 7.332031 -7.960938 7.136719 -7.960938 C 7.136719 -7.960938 7.082031 -7.960938 7.027344 -7.933594 Z M 16.253906 -6.507812 L 16.003906 -8.867188 C 16.003906 -9.03125 15.976562 -9.636719 15.921875 -10.734375 C 15.894531 -11.257812 15.839844 -11.476562 15.703125 -11.667969 C 15.457031 -12.023438 14.25 -12.65625 13.78125 -12.65625 C 13.617188 -12.65625 13.234375 -12.492188 13.011719 -12.328125 C 12.792969 -12.191406 12.738281 -12.050781 12.738281 -11.886719 C 12.738281 -11.777344 12.765625 -11.722656 12.792969 -11.667969 C 13.066406 -11.449219 13.066406 -11.449219 13.148438 -11.0625 L 13.589844 -8.179688 C 13.753906 -7.332031 14.054688 -6.371094 14.332031 -5.875 C 14.714844 -5.105469 15.265625 -4.640625 15.757812 -4.640625 C 16.117188 -4.640625 16.28125 -4.859375 16.28125 -5.382812 C 16.828125 -5.105469 17.132812 -5.023438 17.679688 -5.023438 C 17.84375 -5.023438 18.039062 -5.023438 18.175781 -5.050781 L 19.21875 -5.132812 C 19.328125 -5.160156 20.316406 -5.1875 21.277344 -5.214844 C 21.9375 -4.777344 22.457031 -4.53125 22.785156 -4.53125 C 23.0625 -4.53125 23.417969 -4.832031 23.609375 -5.214844 C 23.914062 -5.902344 24.132812 -6.78125 24.929688 -10.597656 C 25.121094 -11.449219 25.121094 -11.476562 25.503906 -12.050781 C 25.640625 -12.300781 25.722656 -12.492188 25.722656 -12.628906 C 25.722656 -13.011719 25.285156 -13.535156 24.597656 -14 C 23.855469 -14.496094 23.28125 -14.796875 23.0625 -14.796875 C 23.035156 -14.796875 22.839844 -14.742188 22.539062 -14.660156 C 22.539062 -14.632812 21.992188 -14.578125 21.46875 -14.605469 C 20.78125 -14.605469 20.179688 -14.550781 18.695312 -14.414062 L 19.410156 -15.402344 C 19.628906 -15.703125 19.683594 -15.785156 19.683594 -15.976562 C 19.683594 -16.363281 19.464844 -16.582031 18.53125 -17.105469 C 19.4375 -17.242188 19.4375 -17.242188 20.289062 -17.324219 C 23.335938 -17.625 23.335938 -17.625 23.445312 -17.652344 C 23.855469 -17.761719 24.078125 -18.039062 24.078125 -18.476562 C 24.078125 -18.914062 23.746094 -19.328125 23.226562 -19.574219 C 21.851562 -20.179688 21.851562 -20.179688 21.824219 -20.179688 C 21.824219 -20.179688 21.496094 -20.070312 21.003906 -19.875 C 20.976562 -19.875 20.726562 -19.820312 20.453125 -19.792969 C 19.792969 -19.738281 19.109375 -19.601562 17.242188 -19.164062 C 16.089844 -18.886719 16.089844 -18.886719 14.496094 -18.394531 C 13.78125 -18.175781 13.507812 -17.953125 13.507812 -17.625 C 13.507812 -17.132812 14.550781 -16.417969 15.210938 -16.417969 C 15.539062 -16.417969 15.8125 -16.472656 17.1875 -16.800781 L 17.1875 -16.554688 C 17.1875 -16.253906 17.078125 -15.566406 16.855469 -14.796875 C 16.828125 -14.6875 16.746094 -14.332031 16.664062 -13.972656 C 15.347656 -13.644531 14.660156 -13.316406 14.660156 -13.011719 C 14.660156 -12.820312 15.292969 -12.300781 15.730469 -12.105469 C 15.976562 -11.996094 16.089844 -11.996094 16.5 -11.996094 C 16.5 -10.324219 16.527344 -9.992188 16.691406 -7.824219 C 16.746094 -7.441406 16.773438 -7.300781 17.078125 -6.699219 Z M 18.285156 -6.890625 L 18.339844 -8.125 L 19.246094 -8.179688 L 19.21875 -7 Z M 18.367188 -9.527344 L 18.367188 -10.210938 L 19.300781 -10.269531 L 19.300781 -9.636719 Z M 18.367188 -11.53125 L 18.367188 -12.300781 C 18.777344 -12.410156 18.832031 -12.410156 19.328125 -12.464844 L 19.300781 -11.613281 Z M 20.835938 -7.027344 C 21.46875 -11.367188 21.46875 -11.367188 21.46875 -11.75 C 21.46875 -12.105469 21.332031 -12.328125 20.890625 -12.683594 C 21.714844 -12.683594 22.15625 -12.65625 22.15625 -12.65625 C 22.375 -12.601562 22.457031 -12.492188 22.457031 -12.273438 C 22.457031 -11.558594 22.15625 -9.746094 21.550781 -6.78125 C 21.167969 -6.945312 21.113281 -6.972656 20.835938 -7.027344 Z M 20.835938 -7.027344 "/></g></g></g><g fill="#ffaf19" fill-opacity="1"><g transform="translate(57.675225, 67.196934)"><g><path d="M 11.230469 -6.121094 C 11.503906 -6.039062 11.695312 -6.011719 11.804688 -6.011719 C 11.941406 -6.011719 12.132812 -6.039062 12.410156 -6.121094 C 13.835938 -6.480469 14.386719 -6.589844 15.59375 -6.671875 C 16.003906 -6.480469 16.335938 -6.398438 16.5 -6.398438 C 16.882812 -6.398438 17.296875 -6.753906 17.488281 -7.273438 C 17.652344 -7.6875 17.761719 -8.125 18.175781 -10.183594 C 18.257812 -10.515625 18.3125 -10.761719 18.367188 -10.84375 C 18.777344 -11.585938 18.777344 -11.585938 18.777344 -11.859375 C 18.777344 -12.328125 18.3125 -12.875 17.269531 -13.589844 C 16.472656 -14.140625 16.253906 -14.25 15.839844 -14.25 C 15.648438 -14.25 15.648438 -14.25 15.015625 -14.027344 C 15.015625 -14 14.632812 -13.890625 14.304688 -13.808594 C 11.804688 -13.261719 10.296875 -12.574219 10.296875 -12.023438 C 10.296875 -11.914062 10.378906 -11.722656 10.542969 -11.558594 C 10.84375 -11.257812 11.367188 -11.035156 11.941406 -11.035156 C 12.355469 -11.035156 12.4375 -11.0625 13.34375 -11.394531 C 13.890625 -11.585938 14.496094 -11.722656 14.824219 -11.722656 C 15.097656 -11.722656 15.265625 -11.640625 15.265625 -11.476562 L 15.265625 -11.367188 C 15.265625 -11.3125 15.265625 -11.171875 15.238281 -10.980469 C 15.210938 -10.40625 15.183594 -9.882812 15.015625 -8.261719 C 14.660156 -8.429688 14.414062 -8.511719 14.304688 -8.511719 C 14.027344 -8.511719 12.273438 -8.042969 11.230469 -7.714844 L 11.230469 -8.648438 C 11.476562 -8.621094 11.640625 -8.59375 11.722656 -8.59375 C 11.996094 -8.59375 14.195312 -9.03125 14.359375 -9.113281 C 14.6875 -9.308594 14.878906 -9.609375 14.878906 -9.964844 C 14.878906 -10.460938 14.25 -10.816406 13.261719 -10.816406 C 13.09375 -10.816406 12.929688 -10.761719 12.574219 -10.597656 L 11.613281 -10.242188 L 11.285156 -10.101562 C 11.144531 -10.542969 11.0625 -10.625 10.40625 -11.0625 C 9.910156 -11.421875 9.554688 -11.558594 9.058594 -11.558594 C 8.511719 -11.558594 8.179688 -11.339844 8.179688 -10.925781 C 8.179688 -10.84375 8.207031 -10.761719 8.234375 -10.707031 C 8.566406 -10.296875 8.566406 -10.296875 8.566406 -10.128906 L 8.566406 -8.894531 C 8.566406 -8.730469 8.566406 -8.511719 8.539062 -8.152344 C 8.484375 -6.835938 8.429688 -5.601562 8.429688 -4.449219 C 8.429688 -2.582031 8.375 -2.003906 8.152344 -1.289062 C 8.070312 -1.042969 8.042969 -0.878906 8.042969 -0.769531 C 8.042969 -0.4375 8.375 0.0820312 8.867188 0.578125 C 9.855469 1.511719 10.515625 1.921875 11.007812 1.921875 C 11.421875 1.921875 11.585938 1.839844 12.246094 1.234375 C 12.984375 0.769531 13.398438 0.410156 14.140625 -0.355469 C 14.304688 -0.632812 14.441406 -0.90625 14.605469 -1.207031 L 14.988281 -1.867188 C 15.15625 -2.71875 15.183594 -2.746094 15.8125 -3.128906 L 18.3125 -1.648438 C 18.777344 -1.34375 19.109375 -1.152344 19.300781 -1.042969 C 20.726562 -0.300781 21.003906 -0.191406 21.386719 -0.191406 C 21.714844 -0.191406 22.15625 -0.796875 22.15625 -1.289062 C 22.15625 -1.425781 22.074219 -2.003906 22.046875 -2.304688 C 21.964844 -2.664062 21.769531 -2.992188 21.46875 -3.238281 C 20.726562 -3.84375 19.988281 -4.117188 17.214844 -4.941406 L 16.9375 -5.023438 C 17.019531 -5.078125 17.046875 -5.078125 17.105469 -5.078125 L 19.328125 -4.96875 C 19.382812 -4.96875 19.65625 -5.160156 20.097656 -5.4375 C 20.234375 -5.546875 20.535156 -5.738281 20.976562 -5.984375 C 21.414062 -6.230469 21.605469 -6.453125 21.605469 -6.699219 C 21.605469 -6.917969 21.386719 -7.164062 20.917969 -7.523438 C 19.929688 -8.261719 19.683594 -8.375 19.136719 -8.375 C 18.832031 -8.375 18.476562 -8.261719 18.449219 -8.152344 C 18.449219 -7.523438 18.257812 -7.300781 16.003906 -5.296875 C 14.6875 -5.710938 13.726562 -5.929688 13.398438 -5.929688 C 13.039062 -5.929688 12.847656 -5.765625 12.847656 -5.4375 C 12.847656 -5.242188 12.957031 -5.078125 13.261719 -4.832031 C 13.78125 -4.421875 14.496094 -3.898438 15.210938 -3.460938 C 13.480469 -2.664062 12.929688 -2.414062 11.0625 -1.453125 Z M 1.539062 -8.042969 C 1.894531 -8.457031 2.25 -8.730469 2.964844 -9.140625 L 3.734375 -9.308594 C 4.308594 -9.664062 4.308594 -9.664062 4.335938 -9.664062 L 4.96875 -9.636719 C 5.078125 -9.636719 5.160156 -9.691406 5.902344 -10.128906 C 6.644531 -10.597656 6.644531 -10.597656 7.359375 -11.285156 C 8.59375 -12.464844 8.59375 -12.464844 10.898438 -15.15625 C 12.300781 -14.46875 13.121094 -14.195312 13.890625 -14.195312 C 14.632812 -14.195312 15.128906 -14.550781 15.128906 -15.070312 C 15.128906 -15.457031 14.988281 -16.03125 14.796875 -16.445312 C 14.605469 -16.855469 14.195312 -17.019531 13.289062 -17.019531 C 12.902344 -17.019531 12.710938 -16.992188 12.21875 -16.9375 L 13.425781 -18.585938 C 13.644531 -18.339844 14 -18.007812 14.46875 -17.570312 L 15.703125 -16.363281 C 17.242188 -14.824219 18.175781 -13.917969 18.96875 -13.234375 C 20.726562 -11.667969 21.769531 -11.007812 22.429688 -11.007812 C 23.171875 -11.007812 25.09375 -11.367188 25.585938 -11.613281 C 25.972656 -11.777344 26.382812 -11.96875 26.765625 -12.160156 C 26.90625 -12.21875 27.207031 -12.328125 27.671875 -12.4375 L 27.699219 -12.601562 C 26.4375 -13.535156 24.761719 -14.359375 22.292969 -15.292969 C 20.835938 -15.867188 20.234375 -16.199219 19.300781 -16.882812 C 18.613281 -17.433594 17.925781 -17.953125 17.269531 -18.476562 C 16.71875 -18.914062 16.171875 -19.328125 15.59375 -19.738281 C 15.484375 -19.847656 15.128906 -20.125 14.605469 -20.5625 C 14.742188 -20.78125 14.769531 -20.890625 14.769531 -21.058594 C 14.769531 -21.496094 14.632812 -21.6875 13.78125 -22.347656 C 13.121094 -22.839844 12.875 -22.953125 12.464844 -22.953125 C 12.078125 -22.953125 11.804688 -22.757812 11.777344 -22.484375 L 11.75 -22.320312 L 11.722656 -22.128906 C 11.695312 -22.019531 11.585938 -21.824219 11.339844 -21.386719 C 11.171875 -21.140625 10.953125 -20.78125 10.210938 -19.601562 C 8.097656 -16.253906 5.875 -13.398438 3.761719 -11.171875 C 2.71875 -10.101562 1.839844 -8.949219 1.398438 -8.125 Z M 1.539062 -8.042969 "/></g></g></g><g fill="#ffaf19" fill-opacity="1"><g transform="translate(85.124196, 67.196934)"><g><path d="M 11.367188 -11.886719 L 11.035156 -11.339844 C 10.789062 -10.953125 10.542969 -10.542969 10.296875 -10.128906 C 9.992188 -9.636719 9.746094 -9.167969 9.527344 -8.785156 C 8.730469 -7.273438 8.648438 -7.136719 8.484375 -7.136719 C 8.375 -7.136719 8.234375 -7.359375 8.042969 -7.796875 C 7.578125 -8.867188 7.164062 -11.722656 7.164062 -13.917969 L 7.164062 -14.332031 C 7.21875 -15.097656 7.246094 -15.621094 7.246094 -15.703125 C 7.246094 -16.253906 7 -16.664062 6.3125 -17.296875 C 5.601562 -17.925781 5.1875 -18.175781 4.941406 -18.175781 C 4.804688 -18.175781 4.695312 -18.066406 4.613281 -17.898438 C 4.363281 -17.40625 4.171875 -15.402344 4.171875 -13.617188 C 4.171875 -9.71875 5.023438 -6.5625 6.589844 -4.75 C 7.578125 -3.597656 8.949219 -2.746094 9.882812 -2.746094 C 10.210938 -2.746094 10.433594 -2.855469 10.652344 -3.15625 C 11.0625 -3.707031 11.171875 -4.007812 11.339844 -5.132812 C 11.53125 -6.3125 11.53125 -6.3125 11.53125 -6.371094 C 11.53125 -6.398438 11.503906 -6.507812 11.476562 -6.699219 L 11.449219 -7.136719 C 11.449219 -7.246094 11.476562 -7.332031 11.503906 -7.414062 C 11.53125 -7.496094 11.558594 -7.523438 11.558594 -7.550781 C 11.558594 -7.578125 11.53125 -7.632812 11.476562 -7.714844 C 11.339844 -7.90625 11.339844 -7.90625 11.230469 -8.894531 C 11.199219 -9.195312 11.257812 -9.800781 11.449219 -10.925781 C 11.449219 -11.171875 11.449219 -11.339844 11.476562 -11.394531 C 11.476562 -11.53125 11.503906 -11.585938 11.585938 -11.804688 Z M 16.527344 -17.105469 C 16.226562 -17.105469 15.976562 -16.855469 15.976562 -16.609375 C 15.976562 -16.445312 16.03125 -16.308594 16.253906 -16.089844 C 18.53125 -13.535156 19.246094 -12.21875 19.574219 -9.691406 C 19.628906 -9.222656 19.628906 -9.113281 19.738281 -8.976562 C 19.820312 -8.839844 20.042969 -8.59375 20.945312 -7.742188 C 21.496094 -7.246094 21.9375 -7.054688 22.59375 -7.054688 C 23.007812 -7.054688 23.035156 -7.082031 23.445312 -7.46875 C 23.691406 -7.714844 23.773438 -7.960938 23.773438 -8.429688 C 23.773438 -11.449219 21.605469 -14.742188 18.585938 -16.308594 C 17.871094 -16.664062 16.746094 -17.105469 16.527344 -17.105469 Z M 16.527344 -17.105469 "/></g></g></g><g fill="#ffaf19" fill-opacity="1"><g transform="translate(112.573167, 67.196934)"><g><path d="M 11.089844 -12.519531 L 11.476562 -13.808594 C 14.605469 -15.015625 15.347656 -15.347656 15.757812 -15.621094 C 16.058594 -15.839844 16.28125 -16.199219 16.28125 -16.5 C 16.28125 -16.882812 16.089844 -17.078125 15.375 -17.488281 C 14.988281 -17.707031 14.109375 -18.066406 13.972656 -18.066406 C 13.890625 -18.066406 13.78125 -18.007812 13.398438 -17.816406 C 13.066406 -17.652344 13.039062 -17.625 12.710938 -17.488281 C 12.929688 -18.175781 12.984375 -18.367188 13.148438 -18.859375 C 13.453125 -19.738281 13.480469 -19.847656 13.480469 -20.097656 C 13.480469 -20.5625 13.039062 -21.167969 12.273438 -21.769531 C 11.613281 -22.265625 11.230469 -22.484375 10.898438 -22.484375 C 10.515625 -22.484375 10.128906 -22.15625 10.128906 -21.851562 C 10.128906 -21.742188 10.15625 -21.632812 10.210938 -21.386719 C 10.296875 -21.113281 10.324219 -20.976562 10.324219 -20.835938 C 10.324219 -20.234375 9.992188 -18.421875 9.472656 -16.335938 C 6.09375 -15.238281 5.792969 -15.128906 4.804688 -14.960938 C 3.871094 -14.769531 3.761719 -14.714844 3.761719 -14.523438 C 3.761719 -14.25 3.925781 -14.027344 4.363281 -13.644531 C 5.160156 -12.984375 5.820312 -12.628906 6.285156 -12.628906 C 6.589844 -12.628906 6.945312 -12.710938 8.402344 -13.039062 C 6.945312 -8.152344 6.203125 -6.066406 5.546875 -4.886719 C 5.1875 -4.363281 4.96875 -4.007812 4.941406 -3.953125 C 4.886719 -3.816406 4.859375 -3.597656 4.859375 -3.265625 C 4.859375 -2.113281 4.941406 -1.621094 5.160156 -1.179688 C 5.351562 -0.824219 5.847656 -0.578125 6.371094 -0.578125 C 7.027344 -0.578125 7.441406 -0.988281 7.851562 -2.003906 C 8.375 -3.375 8.511719 -3.84375 10.242188 -9.691406 Z M 19.382812 -3.980469 C 18.09375 -3.980469 16.992188 -4.117188 16.171875 -4.421875 C 15.347656 -4.695312 14.988281 -5.078125 14.660156 -6.011719 C 14.414062 -6.699219 14.109375 -7.109375 13.835938 -7.109375 C 13.507812 -7.109375 13.148438 -6.3125 13.148438 -5.628906 C 13.148438 -4.226562 14.109375 -2.691406 15.484375 -1.894531 C 16.964844 -1.042969 18.804688 -0.6875 21.550781 -0.6875 C 22.484375 -0.6875 23.171875 -0.851562 23.445312 -1.125 C 23.71875 -1.398438 23.886719 -1.839844 23.886719 -2.304688 C 23.886719 -2.664062 23.773438 -2.910156 23.582031 -3.101562 C 22.925781 -3.625 21.6875 -4.199219 21.222656 -4.199219 Z M 20.589844 -13.5625 C 19.683594 -13.5625 17.433594 -12.820312 14.851562 -11.695312 C 13.972656 -11.285156 13.5625 -11.007812 13.5625 -10.789062 C 13.5625 -10.433594 14.632812 -9.882812 15.375 -9.882812 C 15.484375 -9.882812 15.648438 -9.882812 15.839844 -9.910156 C 17.652344 -10.15625 18.941406 -10.269531 20.371094 -10.296875 C 22.128906 -10.296875 22.59375 -10.351562 22.925781 -10.570312 C 23.171875 -10.707031 23.308594 -11.0625 23.308594 -11.476562 C 23.308594 -11.914062 23.144531 -12.382812 22.894531 -12.601562 C 22.429688 -13.066406 21.25 -13.5625 20.589844 -13.5625 Z M 20.589844 -13.5625 "/></g></g></g><g fill="#ffaf19" fill-opacity="1"><g transform="translate(140.022138, 67.196934)"><g><path d="M 11.367188 -11.886719 L 11.035156 -11.339844 C 10.789062 -10.953125 10.542969 -10.542969 10.296875 -10.128906 C 9.992188 -9.636719 9.746094 -9.167969 9.527344 -8.785156 C 8.730469 -7.273438 8.648438 -7.136719 8.484375 -7.136719 C 8.375 -7.136719 8.234375 -7.359375 8.042969 -7.796875 C 7.578125 -8.867188 7.164062 -11.722656 7.164062 -13.917969 L 7.164062 -14.332031 C 7.21875 -15.097656 7.246094 -15.621094 7.246094 -15.703125 C 7.246094 -16.253906 7 -16.664062 6.3125 -17.296875 C 5.601562 -17.925781 5.1875 -18.175781 4.941406 -18.175781 C 4.804688 -18.175781 4.695312 -18.066406 4.613281 -17.898438 C 4.363281 -17.40625 4.171875 -15.402344 4.171875 -13.617188 C 4.171875 -9.71875 5.023438 -6.5625 6.589844 -4.75 C 7.578125 -3.597656 8.949219 -2.746094 9.882812 -2.746094 C 10.210938 -2.746094 10.433594 -2.855469 10.652344 -3.15625 C 11.0625 -3.707031 11.171875 -4.007812 11.339844 -5.132812 C 11.53125 -6.3125 11.53125 -6.3125 11.53125 -6.371094 C 11.53125 -6.398438 11.503906 -6.507812 11.476562 -6.699219 L 11.449219 -7.136719 C 11.449219 -7.246094 11.476562 -7.332031 11.503906 -7.414062 C 11.53125 -7.496094 11.558594 -7.523438 11.558594 -7.550781 C 11.558594 -7.578125 11.53125 -7.632812 11.476562 -7.714844 C 11.339844 -7.90625 11.339844 -7.90625 11.230469 -8.894531 C 11.199219 -9.195312 11.257812 -9.800781 11.449219 -10.925781 C 11.449219 -11.171875 11.449219 -11.339844 11.476562 -11.394531 C 11.476562 -11.53125 11.503906 -11.585938 11.585938 -11.804688 Z M 16.527344 -17.105469 C 16.226562 -17.105469 15.976562 -16.855469 15.976562 -16.609375 C 15.976562 -16.445312 16.03125 -16.308594 16.253906 -16.089844 C 18.53125 -13.535156 19.246094 -12.21875 19.574219 -9.691406 C 19.628906 -9.222656 19.628906 -9.113281 19.738281 -8.976562 C 19.820312 -8.839844 20.042969 -8.59375 20.945312 -7.742188 C 21.496094 -7.246094 21.9375 -7.054688 22.59375 -7.054688 C 23.007812 -7.054688 23.035156 -7.082031 23.445312 -7.46875 C 23.691406 -7.714844 23.773438 -7.960938 23.773438 -8.429688 C 23.773438 -11.449219 21.605469 -14.742188 18.585938 -16.308594 C 17.871094 -16.664062 16.746094 -17.105469 16.527344 -17.105469 Z M 16.527344 -17.105469 "/></g></g></g></svg>