<svg xmlns="http://www.w3.org/2000/svg" xmlns:xlink="http://www.w3.org/1999/xlink" width="300" zoomAndPan="magnify" viewBox="0 0 224.87999 74.999997" height="100" preserveAspectRatio="xMidYMid meet" version="1.0"><defs><g/><clipPath id="e5a4888bc2"><path d="M 151 18 L 199.402344 18 L 199.402344 31 L 151 31 Z M 151 18 " clip-rule="nonzero"/></clipPath><clipPath id="6286746768"><path d="M 143.179688 47 L 192 47 L 192 67.3125 L 143.179688 67.3125 Z M 143.179688 47 " clip-rule="nonzero"/></clipPath><clipPath id="d748a18755"><path d="M 149 8.09375 L 195 8.09375 L 195 28 L 149 28 Z M 149 8.09375 " clip-rule="nonzero"/></clipPath></defs><g clip-path="url(#e5a4888bc2)"><path fill="#ffaf19" d="M 198.589844 18.507812 C 197.78125 18.222656 196.964844 18.25 196.15625 18.46875 C 195.75 18.578125 195.347656 18.628906 194.933594 18.617188 C 194.925781 18.628906 194.917969 18.636719 194.910156 18.648438 C 194.847656 18.695312 194.78125 18.734375 194.707031 18.757812 C 194.398438 18.785156 194.085938 18.816406 193.773438 18.847656 C 192.371094 19.152344 190.960938 19.414062 189.582031 19.828125 C 188.28125 20.21875 186.964844 20.5625 185.65625 20.925781 C 185.40625 20.996094 185.15625 21.089844 184.894531 21.097656 C 184.84375 21.097656 184.800781 21.101562 184.75 21.097656 C 184.628906 21.164062 184.503906 21.222656 184.378906 21.277344 C 183.652344 21.585938 182.859375 21.675781 182.109375 21.902344 C 179.074219 22.808594 176.039062 23.714844 172.945312 24.394531 C 171.316406 24.753906 169.683594 25.085938 167.9375 25.457031 C 168.289062 24.390625 168.558594 23.410156 168.226562 22.398438 C 168.132812 22.109375 168.164062 21.625 167.664062 21.742188 C 167.152344 21.863281 167.269531 22.308594 167.421875 22.621094 C 167.746094 23.296875 167.527344 23.921875 167.382812 24.574219 C 167.304688 24.914062 167.4375 25.464844 167.253906 25.578125 C 166.839844 25.839844 166.300781 25.929688 165.796875 26.023438 C 163.3125 26.476562 160.902344 27.207031 158.457031 27.8125 C 156.683594 28.253906 154.914062 28.710938 153.132812 29.125 C 152.472656 29.277344 151.851562 29.511719 151.226562 29.75 C 151.203125 29.761719 151.183594 29.773438 151.160156 29.785156 C 151.160156 29.78125 151.15625 29.78125 151.15625 29.777344 L 151.152344 29.78125 L 151.160156 29.785156 C 151.15625 29.917969 151.152344 30.054688 151.152344 30.1875 C 151.800781 30.4375 152.433594 30.597656 153.164062 30.410156 C 154.585938 30.050781 156.019531 29.734375 157.464844 29.476562 C 161.414062 28.769531 165.34375 27.953125 169.265625 27.105469 C 171.226562 26.679688 173.167969 26.171875 175.117188 25.699219 C 177.140625 25.207031 179.15625 24.667969 181.191406 24.238281 C 182.292969 24.003906 183.351562 23.523438 184.507812 23.582031 C 184.519531 23.570312 184.527344 23.554688 184.539062 23.542969 C 184.550781 23.527344 184.558594 23.515625 184.570312 23.5 C 184.710938 23.414062 184.867188 23.382812 185.027344 23.371094 C 185.214844 23.367188 185.40625 23.355469 185.597656 23.347656 C 186.597656 23.039062 187.644531 22.914062 188.664062 22.679688 C 191.035156 22.132812 193.425781 21.664062 195.8125 21.171875 C 196.015625 21.128906 196.230469 21.125 196.445312 21.113281 C 196.472656 21.085938 196.503906 21.058594 196.535156 21.03125 C 196.632812 20.96875 196.742188 20.933594 196.855469 20.914062 C 196.921875 20.925781 196.988281 20.929688 197.050781 20.929688 C 197.363281 20.769531 197.730469 20.757812 198.054688 20.632812 C 198.507812 20.457031 198.875 20.207031 199.097656 19.773438 C 199.390625 19.203125 199.191406 18.71875 198.589844 18.507812 Z M 198.589844 18.507812 " fill-opacity="1" fill-rule="nonzero"/></g><path fill="#ffaf19" d="M 153.722656 44.886719 C 154.0625 45.042969 154.246094 44.800781 154.382812 44.53125 C 154.449219 44.390625 154.515625 44.25 154.558594 44.105469 C 155.480469 41.183594 155.773438 38.25 154.957031 35.234375 C 154.613281 33.964844 154.125 32.671875 154.542969 31.300781 C 154.601562 31.109375 154.589844 30.871094 154.367188 30.75 C 154.019531 30.554688 153.863281 30.878906 153.648438 31.035156 C 153.632812 31.179688 153.621094 31.320312 153.609375 31.464844 C 153.605469 32.027344 153.601562 32.59375 153.597656 33.15625 C 153.613281 33.351562 153.632812 33.542969 153.648438 33.738281 C 154.09375 34.945312 154.4375 36.1875 154.53125 37.460938 C 154.695312 39.761719 154.523438 42.035156 153.636719 44.210938 C 153.546875 44.429688 153.382812 44.730469 153.722656 44.886719 Z M 153.722656 44.886719 " fill-opacity="1" fill-rule="nonzero"/><g clip-path="url(#6286746768)"><path fill="#ffaf19" d="M 190.710938 47.609375 C 190.511719 47.605469 190.3125 47.59375 190.117188 47.566406 C 187.308594 47.554688 184.5 47.394531 181.679688 47.441406 C 179.890625 47.472656 178.082031 47.542969 176.269531 47.449219 C 173.277344 47.296875 170.273438 47.648438 167.277344 47.636719 C 164.515625 47.625 161.742188 47.675781 158.992188 47.304688 C 158.933594 47.296875 158.875 47.292969 158.816406 47.285156 C 158.328125 47.230469 157.84375 47.230469 157.359375 47.300781 C 157.335938 47.304688 157.3125 47.304688 157.289062 47.308594 C 156.285156 47.460938 155.277344 47.433594 154.273438 47.308594 C 154.257812 47.308594 154.246094 47.308594 154.230469 47.304688 C 153.980469 47.277344 153.730469 47.257812 153.484375 47.246094 C 152.949219 47.21875 152.414062 47.238281 151.878906 47.324219 C 151.648438 47.363281 151.414062 47.410156 151.1875 47.390625 C 149.96875 47.285156 148.75 47.359375 147.53125 47.417969 C 147.515625 47.425781 147.5 47.433594 147.484375 47.441406 C 147.363281 47.515625 147.199219 47.527344 147.042969 47.503906 C 146.859375 47.515625 146.667969 47.5 146.472656 47.460938 C 145.757812 47.480469 145.042969 47.484375 144.328125 47.421875 C 143.605469 47.359375 143.382812 47.699219 143.316406 48.355469 C 143.175781 49.730469 143.890625 50.84375 144.429688 51.984375 C 145.332031 53.90625 146.683594 55.5 148.304688 56.898438 C 149.476562 57.910156 150.726562 58.789062 152.046875 59.59375 C 152.460938 59.847656 152.914062 60.003906 153.332031 60.234375 C 153.429688 60.285156 153.523438 60.34375 153.613281 60.40625 L 153.621094 60.410156 C 153.722656 60.449219 153.824219 60.488281 153.921875 60.523438 C 155.304688 61.046875 156.683594 61.578125 158.074219 62.074219 C 158.625 62.273438 159.207031 62.394531 159.78125 62.527344 C 160.101562 62.601562 160.234375 62.726562 160.050781 63.050781 C 159.636719 63.789062 159.230469 64.527344 158.820312 65.261719 C 158.746094 65.394531 158.675781 65.523438 158.601562 65.652344 C 158.734375 65.972656 158.21875 66.296875 158.605469 66.617188 C 158.6875 66.632812 158.765625 66.65625 158.847656 66.679688 C 159.214844 66.789062 159.570312 66.949219 159.972656 66.917969 C 159.984375 66.917969 159.992188 66.917969 160.003906 66.917969 C 160.160156 66.910156 160.316406 66.898438 160.46875 66.890625 C 160.546875 66.839844 160.628906 66.808594 160.707031 66.78125 C 161.023438 66.679688 161.359375 66.738281 161.679688 66.761719 C 164.308594 66.976562 166.933594 67.179688 169.574219 67.253906 C 170.867188 67.289062 172.152344 67.292969 173.445312 67.246094 C 174.707031 67.199219 175.023438 66.683594 174.625 65.503906 C 174.359375 64.722656 173.859375 64.0625 173.589844 63.355469 C 176.691406 62.265625 179.640625 60.964844 182.453125 59.339844 C 184.191406 58.332031 185.566406 56.984375 186.722656 55.382812 C 186.847656 55.207031 186.941406 55.003906 187.125 54.882812 C 187.148438 54.835938 187.175781 54.792969 187.210938 54.753906 C 187.230469 54.738281 187.25 54.722656 187.269531 54.710938 C 187.527344 54.078125 187.988281 53.585938 188.417969 53.070312 C 189.449219 51.84375 190.082031 50.398438 190.648438 48.925781 C 190.710938 48.753906 190.761719 48.578125 190.875 48.441406 C 190.882812 48.410156 190.886719 48.378906 190.894531 48.347656 C 190.925781 48.304688 190.960938 48.269531 191.003906 48.238281 C 191.082031 47.890625 190.980469 47.6875 190.710938 47.609375 Z M 189.621094 49.308594 C 189.097656 50.535156 188.492188 51.703125 187.601562 52.738281 C 186.730469 53.746094 186.039062 54.90625 185.21875 55.957031 C 183.902344 57.644531 182.058594 58.640625 180.222656 59.640625 C 178.480469 60.589844 176.617188 61.273438 174.808594 62.070312 C 174.390625 62.253906 173.914062 62.304688 173.464844 62.421875 C 172.519531 62.675781 172.425781 62.882812 172.859375 63.785156 C 173.148438 64.386719 173.546875 64.933594 173.75 65.585938 C 173.984375 66.332031 173.929688 66.417969 173.136719 66.453125 C 169.507812 66.621094 165.90625 66.257812 162.296875 65.988281 C 161.601562 65.9375 160.898438 65.972656 160.199219 65.984375 C 159.691406 65.996094 159.390625 65.992188 159.722656 65.316406 C 160.089844 64.578125 160.539062 63.890625 160.894531 63.148438 C 161.347656 62.195312 161.238281 61.960938 160.234375 61.738281 C 156.777344 60.980469 153.484375 59.742188 150.605469 57.714844 C 147.980469 55.863281 145.753906 53.566406 144.640625 50.429688 C 144.480469 49.972656 144.269531 49.527344 144.113281 49.070312 C 143.957031 48.617188 144.050781 48.308594 144.628906 48.324219 C 145.148438 48.34375 145.667969 48.328125 146.183594 48.328125 C 147.0625 48.335938 147.945312 48.402344 148.800781 48.101562 C 148.941406 48.054688 149.117188 48.023438 149.261719 48.054688 C 151.332031 48.523438 153.425781 48.078125 155.5 48.113281 C 158.441406 48.160156 161.382812 48.351562 164.328125 48.371094 C 168.003906 48.394531 171.679688 48.207031 175.351562 48.25 C 177.757812 48.277344 180.171875 48.351562 182.574219 48.292969 C 184.726562 48.246094 186.871094 48.335938 189.019531 48.355469 C 189.90625 48.363281 189.980469 48.46875 189.621094 49.308594 Z M 189.621094 49.308594 " fill-opacity="1" fill-rule="nonzero"/></g><path fill="#ffaf19" d="M 179.238281 44.746094 C 179.15625 44.90625 179.089844 45.089844 179.292969 45.226562 C 179.476562 45.34375 179.65625 45.304688 179.785156 45.15625 C 179.96875 44.945312 180.171875 44.726562 180.277344 44.472656 C 180.855469 43.121094 181.34375 41.75 181.34375 40.246094 C 181.34375 38.839844 181.320312 37.445312 181.0625 36.058594 C 181.054688 36.023438 181.050781 35.984375 181.042969 35.945312 C 181.027344 35.796875 181.015625 35.648438 181 35.5 L 181 35.492188 C 180.191406 33.742188 179.808594 31.96875 180.511719 30.136719 C 180.5625 30.007812 180.621094 29.875 180.679688 29.742188 L 180.683594 29.746094 C 180.683594 29.710938 180.683594 29.675781 180.683594 29.640625 C 180.691406 29.375 180.726562 29.117188 180.839844 28.878906 C 180.878906 28.792969 180.929688 28.707031 180.996094 28.628906 L 180.996094 28.625 C 180.984375 28.585938 180.996094 28.550781 181.023438 28.519531 C 181.019531 28.496094 181.019531 28.472656 181.019531 28.449219 C 181.011719 28.207031 181.128906 28.003906 181.203125 27.78125 C 181.4375 27.046875 181.695312 26.3125 181.609375 25.523438 C 181.582031 25.242188 181.507812 24.886719 181.167969 24.890625 C 180.789062 24.898438 180.691406 25.242188 180.726562 25.578125 C 180.820312 26.480469 180.496094 27.292969 180.214844 28.121094 C 179.421875 30.46875 179.085938 32.75 179.941406 35.253906 C 180.761719 37.65625 180.882812 40.242188 180.074219 42.757812 C 179.855469 43.449219 179.5625 44.101562 179.238281 44.746094 Z M 179.238281 44.746094 " fill-opacity="1" fill-rule="nonzero"/><path fill="#ffaf19" d="M 172.910156 45.609375 C 172.910156 45.683594 172.917969 45.761719 172.9375 45.84375 C 173.140625 45.847656 173.34375 45.847656 173.542969 45.851562 C 173.582031 45.78125 173.621094 45.710938 173.660156 45.640625 C 174.683594 43.816406 175.398438 41.925781 175.488281 39.761719 C 175.578125 37.546875 175.347656 35.46875 174.273438 33.511719 C 173.746094 32.550781 173.71875 31.492188 173.820312 30.445312 C 173.910156 29.523438 174.234375 28.65625 174.695312 27.84375 C 174.84375 27.585938 174.964844 27.214844 174.625 27.023438 C 174.285156 26.828125 174.101562 27.171875 173.984375 27.410156 C 173.269531 28.90625 172.714844 30.40625 173.015625 32.148438 C 173.207031 33.269531 173.832031 34.183594 174.152344 35.226562 C 175.128906 38.410156 174.90625 41.5 173.378906 44.488281 C 173.195312 44.84375 172.910156 45.183594 172.910156 45.609375 Z M 172.910156 45.609375 " fill-opacity="1" fill-rule="nonzero"/><path fill="#ffaf19" d="M 169.542969 45.191406 C 169.878906 45.339844 170.027344 45.035156 170.183594 44.785156 C 170.492188 44.289062 170.679688 43.742188 170.871094 43.199219 C 170.925781 43.042969 170.984375 42.890625 171.042969 42.734375 C 171.054688 42.535156 171.070312 42.332031 171.082031 42.132812 C 171.085938 42.089844 171.089844 42.046875 171.097656 42.007812 C 171.304688 40.339844 171.144531 38.675781 171.085938 37.007812 C 171.085938 36.964844 171.082031 36.921875 171.082031 36.875 C 171.070312 36.574219 171.058594 36.269531 171.046875 35.96875 C 170.988281 35.679688 170.929688 35.390625 170.863281 35.101562 C 170.476562 33.382812 170 31.675781 170.417969 29.867188 C 170.503906 29.484375 170.644531 29.140625 170.839844 28.816406 C 170.902344 28.707031 170.972656 28.605469 171.046875 28.5 C 171.046875 28.410156 171.046875 28.320312 171.042969 28.230469 C 170.992188 28.199219 170.941406 28.171875 170.894531 28.152344 C 170.257812 27.878906 170.007812 28.457031 169.851562 28.867188 C 169.535156 29.699219 169.402344 30.554688 169.410156 31.414062 L 169.410156 31.417969 C 169.414062 32.039062 169.488281 32.660156 169.625 33.273438 C 170.035156 35.109375 170.296875 36.960938 170.398438 38.828125 C 170.507812 40.757812 170.375 42.671875 169.488281 44.460938 C 169.375 44.6875 169.164062 45.023438 169.542969 45.191406 Z M 169.542969 45.191406 " fill-opacity="1" fill-rule="nonzero"/><path fill="#ffaf19" d="M 165.742188 45.011719 C 165.535156 45.230469 165.4375 45.460938 165.460938 45.742188 C 165.460938 45.773438 165.460938 45.804688 165.464844 45.839844 C 165.527344 45.84375 165.585938 45.847656 165.640625 45.847656 C 166.445312 45.84375 166.722656 45.160156 166.988281 44.578125 C 167.648438 43.148438 167.960938 41.664062 168.074219 40.15625 C 168.078125 40.144531 168.078125 40.132812 168.078125 40.121094 C 168.160156 38.980469 168.132812 37.824219 168.050781 36.660156 C 167.976562 35.625 167.585938 34.695312 167.199219 33.738281 C 166.683594 32.457031 166.609375 31.121094 167.132812 29.820312 C 167.1875 29.6875 167.242188 29.558594 167.308594 29.425781 C 167.316406 29.328125 167.320312 29.234375 167.324219 29.140625 C 167.296875 29.101562 167.265625 29.070312 167.238281 29.042969 C 167.003906 28.824219 166.777344 28.890625 166.574219 29.167969 C 166.453125 29.339844 166.34375 29.519531 166.238281 29.703125 C 166.1875 29.785156 166.140625 29.867188 166.09375 29.945312 C 166.078125 30.039062 166.0625 30.132812 166.050781 30.226562 C 166.050781 30.328125 166.050781 30.433594 166.050781 30.535156 C 166.046875 31.28125 166.046875 32.027344 166.046875 32.769531 C 166.046875 32.851562 166.046875 32.929688 166.046875 33.007812 C 166.058594 33.15625 166.070312 33.304688 166.082031 33.453125 C 166.136719 33.535156 166.179688 33.621094 166.230469 33.703125 C 166.925781 34.863281 167.246094 36.136719 167.3125 37.496094 C 167.402344 39.425781 167.234375 41.328125 166.683594 43.183594 C 166.484375 43.847656 166.230469 44.496094 165.742188 45.011719 Z M 165.742188 45.011719 " fill-opacity="1" fill-rule="nonzero"/><path fill="#ffaf19" d="M 160.085938 30.246094 C 159.757812 30.160156 159.613281 30.375 159.5 30.695312 C 159.027344 32.039062 159.167969 33.390625 159.710938 34.613281 C 160.707031 36.839844 161.085938 39.125 160.75 41.515625 C 160.613281 42.5 160.382812 43.496094 159.570312 44.222656 C 159.402344 44.371094 159.078125 44.570312 159.40625 44.839844 C 159.648438 45.039062 159.925781 44.984375 160.175781 44.765625 C 160.511719 44.480469 160.699219 44.085938 160.945312 43.734375 C 160.992188 43.667969 161.042969 43.597656 161.097656 43.535156 C 161.109375 43.480469 161.125 43.429688 161.136719 43.378906 C 161.15625 43.316406 161.171875 43.253906 161.191406 43.191406 C 162.054688 40.367188 161.867188 37.578125 160.695312 34.878906 C 160.125 33.5625 160.035156 32.261719 160.277344 30.894531 C 160.320312 30.644531 160.433594 30.335938 160.085938 30.246094 Z M 160.085938 30.246094 " fill-opacity="1" fill-rule="nonzero"/><path fill="#ffaf19" d="M 163.597656 40.9375 C 163.585938 41.234375 163.570312 41.53125 163.558594 41.828125 C 163.554688 41.867188 163.550781 41.902344 163.546875 41.941406 C 163.488281 42.644531 163.371094 43.335938 162.992188 43.949219 C 162.867188 44.148438 162.496094 44.292969 162.800781 44.546875 C 163.046875 44.746094 163.390625 44.714844 163.65625 44.464844 C 164.019531 44.125 164.09375 43.652344 164.183594 43.207031 C 164.738281 40.523438 164.667969 37.851562 164.105469 35.171875 C 163.753906 33.492188 163.75 31.796875 164.273438 30.132812 C 164.363281 29.855469 164.65625 29.550781 164.195312 29.363281 C 163.734375 29.175781 163.636719 29.539062 163.523438 29.871094 C 162.976562 31.445312 163.054688 33.058594 163.179688 34.679688 C 163.246094 35.527344 163.601562 36.324219 163.566406 37.183594 C 163.566406 37.183594 163.566406 37.183594 163.566406 37.1875 C 163.574219 37.285156 163.582031 37.386719 163.589844 37.488281 C 163.828125 38.636719 163.851562 39.785156 163.597656 40.933594 Z M 163.597656 40.9375 " fill-opacity="1" fill-rule="nonzero"/><g clip-path="url(#d748a18755)"><path fill="#ffaf19" d="M 150.917969 27.726562 C 151.1875 27.671875 151.445312 27.53125 151.707031 27.421875 C 152.53125 27.066406 153.34375 26.664062 154.183594 26.351562 C 157.542969 25.113281 160.890625 23.855469 164.246094 22.617188 C 167.53125 21.402344 170.707031 19.902344 173.988281 18.679688 C 178.601562 16.964844 183.074219 14.917969 187.660156 13.140625 C 189.25 12.523438 190.828125 11.875 192.414062 11.242188 C 192.433594 11.214844 192.457031 11.191406 192.480469 11.171875 C 192.5 11.152344 192.515625 11.128906 192.535156 11.113281 C 192.632812 11.0625 192.734375 11.035156 192.835938 11.015625 C 193.359375 10.730469 193.933594 10.527344 194.367188 10.085938 C 194.699219 9.746094 195.082031 9.386719 194.765625 8.890625 C 194.445312 8.386719 193.988281 8.117188 193.320312 8.378906 C 192.996094 8.507812 192.679688 8.714844 192.304688 8.699219 C 192.289062 8.71875 192.269531 8.738281 192.25 8.761719 C 192.191406 8.804688 192.121094 8.835938 192.050781 8.855469 C 191.96875 8.851562 191.890625 8.855469 191.8125 8.855469 C 190.632812 9.410156 189.460938 9.980469 188.273438 10.515625 C 186.003906 11.535156 183.726562 12.527344 181.449219 13.527344 C 181.339844 13.574219 181.21875 13.601562 181.101562 13.628906 C 181.070312 13.671875 181.039062 13.707031 181 13.738281 C 180.933594 13.753906 180.871094 13.769531 180.804688 13.78125 C 179.738281 14.46875 178.484375 14.726562 177.328125 15.210938 C 176.515625 15.554688 175.75 16.035156 174.851562 16.160156 C 174.839844 16.160156 174.824219 16.164062 174.808594 16.167969 L 174.808594 16.15625 C 174.757812 16.195312 174.707031 16.226562 174.65625 16.261719 C 173.886719 16.777344 172.960938 16.910156 172.128906 17.28125 C 168.839844 18.761719 165.464844 20.039062 162.109375 21.355469 C 162.035156 21.382812 161.957031 21.394531 161.878906 21.402344 C 161.828125 21.40625 161.777344 21.410156 161.730469 21.417969 L 161.734375 21.414062 C 161.683594 21.445312 161.636719 21.472656 161.585938 21.503906 C 160.546875 22.15625 159.359375 22.472656 158.230469 22.90625 C 157.605469 23.148438 157 23.484375 156.316406 23.550781 C 156.300781 23.550781 156.285156 23.554688 156.269531 23.554688 C 156.234375 23.582031 156.195312 23.589844 156.152344 23.585938 C 156.035156 23.640625 155.917969 23.695312 155.804688 23.75 C 154.0625 24.582031 152.324219 25.421875 150.492188 26.035156 C 149.90625 26.234375 149.714844 26.675781 149.808594 27.164062 C 149.910156 27.71875 150.414062 27.828125 150.917969 27.726562 Z M 150.917969 27.726562 " fill-opacity="1" fill-rule="nonzero"/></g><path fill="#ffaf19" d="M 177.964844 18.433594 C 177.828125 18.339844 177.691406 18.285156 177.539062 18.375 C 177.394531 18.457031 177.292969 18.644531 177.359375 18.761719 C 177.875 19.71875 177.648438 20.761719 177.746094 21.765625 C 177.796875 22.289062 178.0625 22.367188 178.402344 22.070312 C 178.433594 22.039062 178.464844 22.011719 178.5 21.976562 C 178.503906 21.066406 178.511719 20.15625 178.515625 19.246094 C 178.441406 19.171875 178.390625 19.078125 178.34375 18.984375 C 178.242188 18.785156 178.171875 18.566406 177.96875 18.433594 Z M 177.964844 18.433594 " fill-opacity="1" fill-rule="nonzero"/><path fill="#ffaf19" d="M 176.101562 44.230469 C 175.964844 44.460938 175.871094 44.855469 176.136719 45.011719 C 176.488281 45.214844 176.667969 44.824219 176.859375 44.597656 C 176.921875 44.523438 176.9375 44.410156 176.984375 44.316406 C 178 42.351562 178.117188 40.1875 178.320312 38.582031 C 178.382812 36.132812 177.839844 34.300781 177.484375 32.441406 C 177.167969 30.757812 177.082031 29.121094 178.09375 27.613281 C 178.28125 27.332031 178.25 27.023438 178.210938 26.71875 C 178.191406 26.554688 178.089844 26.429688 177.910156 26.417969 C 177.761719 26.410156 177.65625 26.503906 177.617188 26.628906 C 177.375 27.417969 176.871094 28.082031 176.625 28.878906 C 176.121094 30.519531 176.578125 32.097656 176.882812 33.667969 C 177.1875 35.253906 177.683594 36.839844 177.519531 38.449219 C 177.320312 40.425781 177.144531 42.441406 176.101562 44.230469 Z M 176.101562 44.230469 " fill-opacity="1" fill-rule="nonzero"/><path fill="#ffaf19" d="M 156.417969 44.90625 C 156.40625 45.085938 156.390625 45.285156 156.621094 45.347656 C 156.792969 45.390625 156.933594 45.296875 157.023438 45.167969 C 157.300781 44.792969 157.535156 44.390625 157.660156 43.9375 C 158.164062 42.09375 158.148438 40.191406 157.925781 38.335938 C 157.636719 35.902344 156.890625 33.507812 157.671875 30.996094 C 157.660156 30.867188 157.71875 30.664062 157.5 30.574219 C 157.277344 30.480469 157.09375 30.566406 156.964844 30.757812 C 156.835938 30.949219 156.789062 31.171875 156.71875 31.394531 C 156.082031 33.429688 156.652344 35.421875 156.9375 37.417969 C 157.28125 39.828125 157.527344 42.214844 156.488281 44.527344 C 156.4375 44.640625 156.429688 44.777344 156.417969 44.90625 Z M 156.417969 44.90625 " fill-opacity="1" fill-rule="nonzero"/><path fill="#ffaf19" d="M 174.9375 23.15625 C 175.40625 23.164062 175.390625 22.570312 175.441406 22.164062 C 175.542969 21.316406 175.152344 20.617188 174.804688 19.902344 C 174.664062 19.609375 174.496094 19.289062 174.125 19.449219 C 173.707031 19.625 173.921875 19.957031 174.050781 20.238281 C 174.339844 20.867188 174.726562 21.464844 174.609375 22.277344 C 174.742188 22.535156 174.378906 23.148438 174.9375 23.15625 Z M 174.9375 23.15625 " fill-opacity="1" fill-rule="nonzero"/><path fill="#ffaf19" d="M 181.035156 20.757812 C 181.035156 20.757812 181.039062 20.761719 181.039062 20.761719 L 181.039062 20.757812 Z M 181.035156 20.757812 " fill-opacity="1" fill-rule="nonzero"/><path fill="#ffaf19" d="M 181.390625 20.785156 C 181.507812 20.773438 181.601562 20.710938 181.644531 20.503906 C 181.84375 19.535156 181.742188 18.609375 181.253906 17.746094 C 181.148438 17.5625 180.996094 17.3125 180.699219 17.480469 C 180.433594 17.632812 180.390625 17.855469 180.542969 18.136719 C 180.960938 18.894531 180.984375 19.734375 181.027344 20.566406 C 181.03125 20.628906 181.035156 20.691406 181.039062 20.753906 L 181.039062 20.757812 C 181.15625 20.761719 181.28125 20.796875 181.390625 20.785156 Z M 181.390625 20.785156 " fill-opacity="1" fill-rule="nonzero"/><path fill="#ffaf19" d="M 171.304688 24.085938 C 171.503906 24.078125 171.648438 23.878906 171.675781 23.652344 C 171.722656 23.246094 171.773438 22.84375 171.828125 22.398438 C 171.773438 22.03125 171.746094 21.621094 171.640625 21.230469 C 171.578125 20.988281 171.398438 20.769531 171.082031 20.816406 C 170.878906 20.847656 170.714844 21.015625 170.773438 21.1875 C 171.046875 21.984375 170.996094 22.785156 170.933594 23.601562 C 170.914062 23.824219 171.027344 24.097656 171.304688 24.085938 Z M 171.304688 24.085938 " fill-opacity="1" fill-rule="nonzero"/><path fill="#ffaf19" d="M 161.738281 24.65625 C 161.71875 24.453125 161.707031 24.226562 161.421875 24.207031 C 161.132812 24.1875 161.078125 24.398438 161.058594 24.605469 C 161.007812 25.199219 160.871094 25.769531 160.652344 26.324219 C 160.570312 26.527344 160.605469 26.742188 160.8125 26.871094 C 161.066406 27.023438 161.210938 26.789062 161.316406 26.648438 C 161.632812 26.222656 161.773438 25.730469 161.738281 25.148438 C 161.738281 25.015625 161.75 24.835938 161.738281 24.65625 Z M 161.738281 24.65625 " fill-opacity="1" fill-rule="nonzero"/><path fill="#ffaf19" d="M 164.15625 25.554688 C 164.664062 25.660156 164.726562 25.148438 164.820312 24.785156 C 164.859375 24.640625 164.828125 24.480469 164.828125 24.324219 L 164.835938 24.324219 L 164.835938 23.941406 C 164.835938 23.601562 164.675781 23.378906 164.328125 23.410156 C 163.941406 23.445312 163.929688 23.707031 164.007812 24.035156 C 164.054688 24.25 164.007812 24.492188 163.984375 24.71875 C 163.953125 25.027344 163.679688 25.460938 164.15625 25.554688 Z M 164.15625 25.554688 " fill-opacity="1" fill-rule="nonzero"/><path fill="#ffaf19" d="M 157.808594 25.742188 C 157.097656 25.847656 157.414062 26.519531 157.226562 26.917969 C 157.128906 27.121094 157.285156 27.460938 157.5625 27.363281 C 158.074219 27.1875 158.0625 26.65625 158.148438 26.296875 C 158.152344 25.972656 158.125 25.695312 157.808594 25.742188 Z M 157.808594 25.742188 " fill-opacity="1" fill-rule="nonzero"/><path fill="#ffaf19" d="M 154.851562 26.617188 C 154.328125 26.6875 154.351562 27.195312 154.257812 27.570312 C 154.207031 27.765625 154.226562 28.046875 154.507812 28.039062 C 155.050781 28.023438 155.066406 27.539062 155.183594 27.246094 C 155.210938 26.894531 155.203125 26.570312 154.851562 26.617188 Z M 154.851562 26.617188 " fill-opacity="1" fill-rule="nonzero"/><g fill="#ffaf19" fill-opacity="1"><g transform="translate(52.404945, 28.793621)"><g><path d="M 9.058594 -15.519531 L 8.527344 -14.964844 C 8.261719 -14.617188 8.050781 -14.140625 7.8125 -13.480469 C 7.230469 -11.492188 7.230469 -11.46875 6.992188 -8.660156 C 6.78125 -7.441406 6.78125 -7.441406 6.78125 -7.308594 C 6.78125 -6.433594 8.128906 -5.242188 9.109375 -5.242188 C 9.480469 -5.242188 9.800781 -5.457031 10.515625 -6.222656 C 11.414062 -7.175781 12.023438 -7.707031 12.660156 -8.128906 C 13.71875 -8.820312 15.015625 -9.242188 16.023438 -9.242188 C 17.265625 -9.242188 18.246094 -8.15625 18.246094 -6.804688 C 18.246094 -5.003906 16.976562 -3.867188 13.03125 -2.09375 C 11.097656 -1.269531 9.851562 -0.398438 9.03125 0.660156 L 9.109375 0.742188 C 10.144531 0.078125 10.699219 -0.105469 11.546875 -0.105469 C 11.730469 -0.105469 11.730469 -0.105469 13.425781 0.0546875 L 14.726562 -0.132812 L 15.121094 -0.183594 C 15.519531 -0.292969 15.890625 -0.421875 16.289062 -0.554688 C 16.550781 -0.636719 16.710938 -0.6875 16.765625 -0.714844 L 17.109375 -0.925781 L 17.71875 -1.164062 L 18.035156 -1.457031 C 18.511719 -1.535156 18.566406 -1.5625 19.253906 -2.09375 C 20.683594 -3.203125 21.425781 -4.6875 21.425781 -6.355469 C 21.425781 -9.296875 19.09375 -11.308594 15.730469 -11.308594 C 13.746094 -11.308594 12.207031 -10.777344 9.429688 -9.109375 C 9.453125 -10.039062 9.480469 -10.195312 9.558594 -10.9375 C 9.640625 -11.890625 9.667969 -12.234375 9.667969 -12.816406 C 9.667969 -12.949219 9.667969 -13.269531 9.640625 -13.691406 C 9.613281 -13.957031 9.613281 -14.25 9.613281 -14.378906 C 9.613281 -15.226562 9.984375 -15.570312 11.335938 -15.941406 C 11.730469 -16.050781 11.730469 -16.050781 13.242188 -16.234375 L 14.566406 -16.527344 C 16.074219 -16.816406 16.074219 -16.816406 16.339844 -17.027344 C 16.605469 -17.242188 16.765625 -17.613281 16.765625 -17.980469 C 16.765625 -18.484375 16.472656 -18.9375 15.890625 -19.414062 C 15.570312 -19.675781 15.308594 -19.757812 14.328125 -19.78125 C 13.109375 -19.835938 11.757812 -20.152344 11.441406 -20.523438 C 11.015625 -20.921875 10.726562 -21.160156 10.621094 -21.160156 C 10.515625 -21.160156 10.382812 -20.867188 10.382812 -20.578125 C 10.382812 -19.652344 10.671875 -19.121094 11.730469 -18.035156 C 11.175781 -17.664062 10.992188 -17.503906 10.460938 -16.949219 C 10.195312 -16.65625 9.90625 -16.367188 9.613281 -16.074219 Z M 9.058594 -15.519531 "/></g></g></g><g fill="#ffaf19" fill-opacity="1"><g transform="translate(78.886928, 28.793621)"><g><path d="M 12.234375 1.429688 C 13.109375 0.6875 13.585938 0.503906 14.539062 0.503906 L 14.9375 0.316406 L 16.3125 -0.0273438 L 18.035156 -0.875 C 19.175781 -1.324219 19.175781 -1.324219 19.4375 -1.535156 C 19.996094 -1.933594 20.683594 -2.675781 21.238281 -3.523438 C 22.035156 -4.660156 22.324219 -5.535156 22.324219 -6.804688 C 22.324219 -8.738281 21.453125 -10.433594 19.914062 -11.46875 C 19.253906 -11.917969 18.589844 -12.183594 17.585938 -12.421875 C 17.613281 -12.578125 17.613281 -12.660156 17.613281 -12.710938 C 17.613281 -13.082031 17.375 -13.425781 16.789062 -13.902344 C 16.417969 -14.222656 16.15625 -14.378906 15.96875 -14.378906 C 15.757812 -14.378906 15.519531 -14.25 15.519531 -14.140625 C 15.519531 -14.089844 15.519531 -14.035156 15.546875 -13.984375 C 15.570312 -13.902344 15.570312 -13.851562 15.570312 -13.824219 C 15.570312 -13.585938 15.308594 -13.03125 14.988281 -12.527344 C 13.53125 -12.445312 12.660156 -12.316406 11.574219 -11.96875 C 11.625 -12.871094 11.652344 -13.320312 11.8125 -14.222656 C 13.824219 -14.671875 15.121094 -15.042969 16.445312 -15.546875 C 17.957031 -16.101562 18.378906 -16.445312 18.378906 -17.109375 C 18.378906 -17.558594 18.195312 -17.824219 17.585938 -18.113281 C 16.5 -18.644531 16.5 -18.644531 16.289062 -18.644531 C 16.128906 -18.644531 15.917969 -18.539062 15.359375 -18.246094 C 14.460938 -17.71875 13.558594 -17.347656 12.339844 -16.976562 C 12.578125 -17.929688 12.683594 -18.300781 12.898438 -18.9375 C 13.054688 -19.414062 13.109375 -19.625 13.109375 -19.757812 C 13.109375 -20.152344 12.84375 -20.605469 12.261719 -21.265625 C 11.96875 -21.582031 11.757812 -21.714844 11.546875 -21.714844 C 11.175781 -21.714844 10.9375 -21.34375 10.59375 -20.261719 C 10.222656 -19.121094 9.90625 -17.742188 9.640625 -16.339844 C 8.5 -16.101562 7.757812 -15.996094 6.066406 -15.835938 C 5.085938 -15.757812 4.980469 -15.703125 4.980469 -15.414062 C 4.980469 -15.09375 5.136719 -14.804688 5.507812 -14.40625 C 6.089844 -13.769531 6.59375 -13.507812 7.152344 -13.507812 C 7.441406 -13.507812 8.105469 -13.585938 9.296875 -13.769531 C 9.242188 -13.164062 9.242188 -13.082031 9.214844 -12.578125 C 9.214844 -12.289062 9.191406 -11.785156 9.164062 -11.070312 C 6.433594 -9.429688 5.589844 -8.765625 4.527344 -7.519531 C 4.050781 -6.9375 3.894531 -6.648438 3.894531 -6.410156 C 3.894531 -5.957031 3.972656 -5.851562 4.632812 -5.351562 C 5.164062 -5.003906 5.429688 -4.527344 6.25 -2.59375 C 6.78125 -1.269531 6.914062 -1.164062 7.785156 -1.164062 C 8.632812 -1.164062 9.71875 -1.695312 11.148438 -2.859375 C 11.785156 -2.171875 12.078125 -1.984375 12.5 -1.984375 C 12.660156 -1.984375 12.816406 -2.066406 12.925781 -2.171875 C 13.082031 -2.355469 13.242188 -2.703125 13.242188 -2.859375 C 13.242188 -3.019531 13.214844 -3.070312 12.898438 -3.601562 C 12.816406 -3.707031 12.792969 -3.789062 12.527344 -4.210938 C 14.0625 -5.800781 15.464844 -7.917969 16.578125 -10.300781 C 18.328125 -10.011719 19.332031 -8.898438 19.332031 -7.230469 C 19.332031 -6.066406 18.910156 -4.980469 18.035156 -3.894531 C 17.292969 -2.964844 16.738281 -2.464844 15.203125 -1.269531 C 13.957031 -0.34375 13.585938 -0.0273438 12.128906 1.351562 Z M 9.71875 -4.765625 C 8.871094 -4.050781 8.421875 -3.761719 8.15625 -3.761719 C 7.867188 -3.761719 7.46875 -4 6.78125 -4.609375 C 6.304688 -5.003906 6.089844 -5.324219 6.089844 -5.5625 C 6.089844 -5.933594 6.460938 -6.355469 7.441406 -7.257812 C 8.105469 -7.839844 8.210938 -7.890625 9.109375 -8.449219 L 9.296875 -8.527344 C 9.558594 -6.621094 9.667969 -6.144531 10.0625 -5.058594 Z M 11.863281 -6.886719 C 11.652344 -8.078125 11.601562 -8.582031 11.519531 -9.558594 C 12.234375 -9.878906 12.421875 -9.929688 13.851562 -10.222656 C 13.109375 -8.738281 12.792969 -8.183594 11.863281 -6.886719 Z M 11.863281 -6.886719 "/></g></g></g><g fill="#ffaf19" fill-opacity="1"><g transform="translate(105.368912, 28.793621)"><g><path d="M 0.820312 0.53125 C 1.507812 0.160156 1.855469 0 2.304688 -0.078125 C 4.925781 -0.34375 6.328125 -1.191406 9.109375 -4.183594 C 9.535156 -3.945312 9.535156 -3.945312 10.753906 -3.152344 C 11.890625 -2.410156 12.5 -2.09375 14.617188 -0.980469 C 17.347656 0.421875 19.015625 1.113281 19.730469 1.113281 C 20.390625 1.113281 21.027344 1.007812 22.246094 0.714844 C 22.933594 0.53125 23.835938 0.265625 24.019531 0.210938 L 26.667969 -0.847656 C 26.695312 -0.847656 26.828125 -0.902344 27.011719 -0.953125 L 27.066406 -1.164062 C 26.828125 -1.296875 26.5625 -1.402344 26.535156 -1.429688 C 26.140625 -1.507812 25.769531 -1.617188 25.371094 -1.722656 C 24.867188 -1.855469 24.339844 -1.984375 23.808594 -2.117188 C 23.597656 -2.171875 22.75 -2.304688 21.875 -2.410156 L 20.472656 -2.570312 L 19.121094 -2.726562 C 18.273438 -2.859375 17.503906 -3.046875 16.578125 -3.363281 C 13.929688 -4.289062 13.320312 -4.527344 11.386719 -5.457031 L 10.515625 -5.878906 C 10.804688 -6.277344 11.070312 -6.671875 11.148438 -6.804688 C 11.707031 -7.679688 12.078125 -8.289062 12.128906 -8.34375 C 12.578125 -8.898438 12.683594 -9.058594 12.683594 -9.296875 C 12.683594 -9.613281 12.472656 -9.878906 11.730469 -10.40625 C 11.121094 -10.832031 10.882812 -10.9375 10.671875 -10.9375 C 10.539062 -10.9375 10.355469 -10.882812 10.167969 -10.777344 C 9.535156 -10.382812 9.402344 -10.328125 8.5 -10.0625 C 8.582031 -10.300781 8.660156 -10.488281 8.714844 -10.59375 C 8.738281 -10.671875 8.765625 -10.726562 8.765625 -10.753906 C 8.765625 -10.859375 8.714844 -10.9375 8.367188 -11.230469 C 8.738281 -11.386719 9.402344 -11.574219 10.910156 -11.839844 C 11.945312 -11.945312 12.445312 -12.078125 12.578125 -12.261719 C 12.765625 -12.472656 12.84375 -12.660156 12.84375 -12.871094 C 12.84375 -13.109375 12.710938 -13.320312 12.5 -13.425781 C 12.078125 -13.640625 11.230469 -13.902344 10.910156 -13.902344 C 10.753906 -13.902344 10.488281 -13.851562 10.089844 -13.71875 L 9.191406 -13.53125 L 9.242188 -14.117188 C 9.691406 -14.25 9.851562 -14.273438 10.25 -14.355469 C 11.015625 -14.488281 11.070312 -14.511719 11.175781 -14.539062 C 11.546875 -14.699219 11.757812 -14.988281 11.757812 -15.332031 C 11.757812 -15.570312 11.574219 -15.785156 11.148438 -15.996094 C 10.699219 -16.261719 10.355469 -16.367188 10.144531 -16.367188 C 10.089844 -16.367188 9.957031 -16.367188 9.773438 -16.3125 C 9.71875 -16.3125 9.585938 -16.289062 9.453125 -16.261719 L 9.453125 -16.84375 C 9.929688 -16.921875 10.382812 -17.003906 10.515625 -17.027344 C 10.9375 -17.109375 11.230469 -17.160156 11.308594 -17.160156 C 12.023438 -17.292969 12.339844 -17.53125 12.339844 -18.007812 C 12.339844 -18.328125 12.101562 -18.589844 11.625 -18.828125 C 11.335938 -18.988281 10.726562 -19.175781 10.515625 -19.175781 C 10.433594 -19.175781 10.277344 -19.148438 10.0625 -19.09375 C 9.984375 -19.066406 9.800781 -19.042969 9.585938 -18.988281 C 9.585938 -19.359375 9.613281 -19.652344 9.640625 -19.808594 C 9.667969 -20.046875 9.691406 -20.179688 9.691406 -20.261719 C 9.691406 -20.605469 9.402344 -20.976562 9.03125 -21.132812 C 7.996094 -21.558594 7.839844 -21.636719 7.574219 -21.636719 C 7.257812 -21.636719 7.019531 -21.453125 6.78125 -21.027344 C 6.59375 -20.738281 6.59375 -20.710938 6.59375 -20.65625 C 6.59375 -20.605469 6.671875 -20.523438 6.753906 -20.5 C 7.019531 -20.417969 7.019531 -20.417969 7.042969 -20.367188 C 7.070312 -20.261719 7.070312 -20.101562 7.070312 -19.863281 L 7.070312 -19.226562 C 7.042969 -19.066406 7.042969 -18.777344 7.042969 -18.328125 C 5.351562 -17.796875 4.449219 -17.503906 4.316406 -17.425781 C 4.050781 -17.292969 3.894531 -17.082031 3.894531 -16.871094 C 3.894531 -16.417969 4.765625 -15.941406 5.5625 -15.941406 C 5.71875 -15.941406 5.933594 -15.96875 6.195312 -16.050781 L 6.753906 -16.207031 C 6.78125 -16.207031 6.886719 -16.234375 7.070312 -16.261719 L 7.042969 -15.625 L 6.277344 -15.414062 C 5.085938 -15.070312 5.085938 -15.070312 4.953125 -15.015625 C 4.609375 -14.882812 4.476562 -14.726562 4.476562 -14.539062 C 4.476562 -14.300781 4.714844 -14.035156 5.164062 -13.851562 C 5.589844 -13.664062 6.039062 -13.53125 6.355469 -13.53125 C 6.515625 -13.53125 6.726562 -13.558594 7.152344 -13.613281 L 7.152344 -13.03125 C 4.6875 -12.472656 3.945312 -12.289062 2.753906 -11.890625 C 1.617188 -11.519531 1.507812 -11.441406 1.507812 -11.097656 C 1.507812 -10.699219 2.859375 -9.90625 3.523438 -9.90625 C 3.839844 -9.90625 4.238281 -9.984375 4.6875 -10.144531 L 5.402344 -10.382812 C 5.507812 -10.433594 5.800781 -10.515625 6.222656 -10.644531 C 5.003906 -8.898438 4.316406 -7.917969 3.917969 -7.414062 C 3.417969 -6.78125 2.941406 -6.171875 2.464844 -5.5625 C 2.277344 -5.324219 1.90625 -4.820312 1.402344 -4.132812 L 1.5625 -4 C 2.09375 -4.503906 2.515625 -4.792969 3.046875 -4.980469 C 3.523438 -5.136719 4 -5.296875 4.449219 -5.457031 C 4.527344 -5.480469 4.847656 -5.71875 5.296875 -6.117188 C 5.351562 -6.144531 5.480469 -6.277344 5.640625 -6.382812 L 7.125 -5.429688 C 4.632812 -2.570312 4.632812 -2.570312 2.144531 -0.742188 C 1.589844 -0.34375 1.351562 -0.160156 0.6875 0.34375 Z M 7.125 -8.210938 C 7.335938 -8.105469 7.496094 -8.050781 7.601562 -8.050781 C 7.679688 -8.050781 7.785156 -8.078125 7.917969 -8.128906 C 8.554688 -8.316406 8.765625 -8.367188 9.269531 -8.449219 C 8.871094 -7.734375 8.792969 -7.652344 8.367188 -6.992188 C 8.078125 -7.152344 7.839844 -7.257812 7.679688 -7.363281 C 7.363281 -7.546875 7.070312 -7.679688 6.886719 -7.679688 C 6.886719 -7.679688 6.832031 -7.679688 6.78125 -7.652344 Z M 15.679688 -6.277344 L 15.441406 -8.554688 C 15.441406 -8.714844 15.414062 -9.296875 15.359375 -10.355469 C 15.332031 -10.859375 15.28125 -11.070312 15.148438 -11.253906 C 14.910156 -11.601562 13.746094 -12.207031 13.292969 -12.207031 C 13.136719 -12.207031 12.765625 -12.050781 12.554688 -11.890625 C 12.339844 -11.757812 12.289062 -11.625 12.289062 -11.46875 C 12.289062 -11.363281 12.316406 -11.308594 12.339844 -11.253906 C 12.605469 -11.042969 12.605469 -11.042969 12.683594 -10.671875 L 13.109375 -7.890625 C 13.269531 -7.070312 13.558594 -6.144531 13.824219 -5.667969 C 14.195312 -4.925781 14.726562 -4.476562 15.203125 -4.476562 C 15.546875 -4.476562 15.703125 -4.6875 15.703125 -5.191406 C 16.234375 -4.925781 16.527344 -4.847656 17.054688 -4.847656 C 17.214844 -4.847656 17.398438 -4.847656 17.53125 -4.871094 L 18.539062 -4.953125 C 18.644531 -4.980469 19.597656 -5.003906 20.523438 -5.03125 C 21.160156 -4.609375 21.664062 -4.371094 21.980469 -4.371094 C 22.246094 -4.371094 22.589844 -4.660156 22.777344 -5.03125 C 23.066406 -5.695312 23.277344 -6.542969 24.046875 -10.222656 C 24.230469 -11.042969 24.230469 -11.070312 24.601562 -11.625 C 24.734375 -11.863281 24.816406 -12.050781 24.816406 -12.183594 C 24.816406 -12.554688 24.390625 -13.054688 23.730469 -13.507812 C 23.015625 -13.984375 22.457031 -14.273438 22.246094 -14.273438 C 22.21875 -14.273438 22.035156 -14.222656 21.742188 -14.140625 C 21.742188 -14.117188 21.214844 -14.0625 20.710938 -14.089844 C 20.046875 -14.089844 19.464844 -14.035156 18.035156 -13.902344 L 18.722656 -14.855469 C 18.9375 -15.148438 18.988281 -15.226562 18.988281 -15.414062 C 18.988281 -15.785156 18.777344 -15.996094 17.875 -16.5 C 18.75 -16.632812 18.75 -16.632812 19.570312 -16.710938 C 22.511719 -17.003906 22.511719 -17.003906 22.617188 -17.027344 C 23.015625 -17.132812 23.226562 -17.398438 23.226562 -17.824219 C 23.226562 -18.246094 22.90625 -18.644531 22.40625 -18.882812 C 21.082031 -19.464844 21.082031 -19.464844 21.054688 -19.464844 C 21.054688 -19.464844 20.738281 -19.359375 20.261719 -19.175781 C 20.234375 -19.175781 19.996094 -19.121094 19.730469 -19.09375 C 19.09375 -19.042969 18.433594 -18.910156 16.632812 -18.484375 C 15.519531 -18.21875 15.519531 -18.21875 13.984375 -17.742188 C 13.292969 -17.53125 13.03125 -17.320312 13.03125 -17.003906 C 13.03125 -16.527344 14.035156 -15.835938 14.671875 -15.835938 C 14.988281 -15.835938 15.253906 -15.890625 16.578125 -16.207031 L 16.578125 -15.96875 C 16.578125 -15.679688 16.472656 -15.015625 16.261719 -14.273438 C 16.234375 -14.167969 16.15625 -13.824219 16.074219 -13.480469 C 14.804688 -13.164062 14.140625 -12.84375 14.140625 -12.554688 C 14.140625 -12.367188 14.75 -11.863281 15.175781 -11.679688 C 15.414062 -11.574219 15.519531 -11.574219 15.917969 -11.574219 C 15.917969 -9.957031 15.941406 -9.640625 16.101562 -7.546875 C 16.15625 -7.175781 16.179688 -7.042969 16.472656 -6.460938 Z M 17.636719 -6.648438 L 17.691406 -7.839844 L 18.566406 -7.890625 L 18.539062 -6.753906 Z M 17.71875 -9.191406 L 17.71875 -9.851562 L 18.617188 -9.90625 L 18.617188 -9.296875 Z M 17.71875 -11.121094 L 17.71875 -11.863281 C 18.113281 -11.96875 18.167969 -11.96875 18.644531 -12.023438 L 18.617188 -11.203125 Z M 20.101562 -6.78125 C 20.710938 -10.964844 20.710938 -10.964844 20.710938 -11.335938 C 20.710938 -11.679688 20.578125 -11.890625 20.152344 -12.234375 C 20.949219 -12.234375 21.371094 -12.207031 21.371094 -12.207031 C 21.582031 -12.15625 21.664062 -12.050781 21.664062 -11.839844 C 21.664062 -11.148438 21.371094 -9.402344 20.789062 -6.542969 C 20.417969 -6.699219 20.367188 -6.726562 20.101562 -6.78125 Z M 20.101562 -6.78125 "/></g></g></g><g fill="#ffaf19" fill-opacity="1"><g transform="translate(39.158109, 65.524018)"><g><path d="M 10.832031 -5.90625 C 11.097656 -5.828125 11.28125 -5.800781 11.386719 -5.800781 C 11.519531 -5.800781 11.707031 -5.828125 11.96875 -5.90625 C 13.347656 -6.25 13.878906 -6.355469 15.042969 -6.433594 C 15.441406 -6.25 15.757812 -6.171875 15.917969 -6.171875 C 16.289062 -6.171875 16.683594 -6.515625 16.871094 -7.019531 C 17.027344 -7.414062 17.132812 -7.839844 17.53125 -9.824219 C 17.613281 -10.144531 17.664062 -10.382812 17.71875 -10.460938 C 18.113281 -11.175781 18.113281 -11.175781 18.113281 -11.441406 C 18.113281 -11.890625 17.664062 -12.421875 16.65625 -13.109375 C 15.890625 -13.640625 15.679688 -13.746094 15.28125 -13.746094 C 15.09375 -13.746094 15.09375 -13.746094 14.488281 -13.53125 C 14.488281 -13.507812 14.117188 -13.402344 13.796875 -13.320312 C 11.386719 -12.792969 9.929688 -12.128906 9.929688 -11.601562 C 9.929688 -11.492188 10.011719 -11.308594 10.167969 -11.148438 C 10.460938 -10.859375 10.964844 -10.644531 11.519531 -10.644531 C 11.917969 -10.644531 11.996094 -10.671875 12.871094 -10.992188 C 13.402344 -11.175781 13.984375 -11.308594 14.300781 -11.308594 C 14.566406 -11.308594 14.726562 -11.230469 14.726562 -11.070312 L 14.726562 -10.964844 C 14.726562 -10.910156 14.726562 -10.777344 14.699219 -10.59375 C 14.671875 -10.039062 14.644531 -9.535156 14.488281 -7.972656 C 14.140625 -8.128906 13.902344 -8.210938 13.796875 -8.210938 C 13.53125 -8.210938 11.839844 -7.757812 10.832031 -7.441406 L 10.832031 -8.34375 C 11.070312 -8.316406 11.230469 -8.289062 11.308594 -8.289062 C 11.574219 -8.289062 13.691406 -8.714844 13.851562 -8.792969 C 14.167969 -8.976562 14.355469 -9.269531 14.355469 -9.613281 C 14.355469 -10.089844 13.746094 -10.433594 12.792969 -10.433594 C 12.632812 -10.433594 12.472656 -10.382812 12.128906 -10.222656 L 11.203125 -9.878906 L 10.882812 -9.746094 C 10.753906 -10.167969 10.671875 -10.25 10.039062 -10.671875 C 9.558594 -11.015625 9.214844 -11.148438 8.738281 -11.148438 C 8.210938 -11.148438 7.890625 -10.9375 7.890625 -10.539062 C 7.890625 -10.460938 7.917969 -10.382812 7.945312 -10.328125 C 8.261719 -9.929688 8.261719 -9.929688 8.261719 -9.773438 L 8.261719 -8.582031 C 8.261719 -8.421875 8.261719 -8.210938 8.234375 -7.867188 C 8.183594 -6.59375 8.128906 -5.402344 8.128906 -4.289062 C 8.128906 -2.488281 8.078125 -1.933594 7.867188 -1.246094 C 7.785156 -1.007812 7.757812 -0.847656 7.757812 -0.742188 C 7.757812 -0.421875 8.078125 0.078125 8.554688 0.554688 C 9.507812 1.457031 10.144531 1.855469 10.621094 1.855469 C 11.015625 1.855469 11.175781 1.773438 11.8125 1.191406 C 12.527344 0.742188 12.925781 0.398438 13.640625 -0.34375 C 13.796875 -0.609375 13.929688 -0.875 14.089844 -1.164062 L 14.460938 -1.800781 C 14.617188 -2.621094 14.644531 -2.648438 15.253906 -3.019531 L 17.664062 -1.589844 C 18.113281 -1.296875 18.433594 -1.113281 18.617188 -1.007812 C 19.996094 -0.292969 20.261719 -0.183594 20.628906 -0.183594 C 20.949219 -0.183594 21.371094 -0.769531 21.371094 -1.246094 C 21.371094 -1.378906 21.292969 -1.933594 21.265625 -2.222656 C 21.1875 -2.570312 21 -2.886719 20.710938 -3.125 C 19.996094 -3.707031 19.28125 -3.972656 16.605469 -4.765625 L 16.339844 -4.847656 C 16.417969 -4.898438 16.445312 -4.898438 16.5 -4.898438 L 18.644531 -4.792969 C 18.695312 -4.792969 18.960938 -4.980469 19.386719 -5.242188 C 19.519531 -5.351562 19.808594 -5.535156 20.234375 -5.773438 C 20.65625 -6.011719 20.84375 -6.222656 20.84375 -6.460938 C 20.84375 -6.671875 20.628906 -6.914062 20.179688 -7.257812 C 19.226562 -7.972656 18.988281 -8.078125 18.457031 -8.078125 C 18.167969 -8.078125 17.824219 -7.972656 17.796875 -7.867188 C 17.796875 -7.257812 17.613281 -7.042969 15.441406 -5.109375 C 14.167969 -5.507812 13.242188 -5.71875 12.925781 -5.71875 C 12.578125 -5.71875 12.394531 -5.5625 12.394531 -5.242188 C 12.394531 -5.058594 12.5 -4.898438 12.792969 -4.660156 C 13.292969 -4.265625 13.984375 -3.761719 14.671875 -3.335938 C 13.003906 -2.570312 12.472656 -2.332031 10.671875 -1.402344 Z M 1.484375 -7.757812 C 1.828125 -8.15625 2.171875 -8.421875 2.859375 -8.820312 L 3.601562 -8.976562 C 4.15625 -9.320312 4.15625 -9.320312 4.183594 -9.320312 L 4.792969 -9.296875 C 4.898438 -9.296875 4.980469 -9.347656 5.695312 -9.773438 C 6.410156 -10.222656 6.410156 -10.222656 7.097656 -10.882812 C 8.289062 -12.023438 8.289062 -12.023438 10.515625 -14.617188 C 11.863281 -13.957031 12.660156 -13.691406 13.402344 -13.691406 C 14.117188 -13.691406 14.59375 -14.035156 14.59375 -14.539062 C 14.59375 -14.910156 14.460938 -15.464844 14.273438 -15.863281 C 14.089844 -16.261719 13.691406 -16.417969 12.816406 -16.417969 C 12.445312 -16.417969 12.261719 -16.394531 11.785156 -16.339844 L 12.949219 -17.929688 C 13.164062 -17.691406 13.507812 -17.375 13.957031 -16.949219 L 15.148438 -15.785156 C 16.632812 -14.300781 17.53125 -13.425781 18.300781 -12.765625 C 19.996094 -11.253906 21 -10.621094 21.636719 -10.621094 C 22.351562 -10.621094 24.207031 -10.964844 24.683594 -11.203125 C 25.054688 -11.363281 25.449219 -11.546875 25.820312 -11.730469 C 25.953125 -11.785156 26.246094 -11.890625 26.695312 -11.996094 L 26.722656 -12.15625 C 25.503906 -13.054688 23.886719 -13.851562 21.503906 -14.75 C 20.101562 -15.308594 19.519531 -15.625 18.617188 -16.289062 C 17.957031 -16.816406 17.292969 -17.320312 16.65625 -17.824219 C 16.128906 -18.246094 15.597656 -18.644531 15.042969 -19.042969 C 14.9375 -19.148438 14.59375 -19.414062 14.089844 -19.835938 C 14.222656 -20.046875 14.25 -20.152344 14.25 -20.3125 C 14.25 -20.738281 14.117188 -20.921875 13.292969 -21.558594 C 12.660156 -22.035156 12.421875 -22.140625 12.023438 -22.140625 C 11.652344 -22.140625 11.386719 -21.953125 11.363281 -21.691406 L 11.335938 -21.53125 L 11.308594 -21.34375 C 11.28125 -21.238281 11.175781 -21.054688 10.9375 -20.628906 C 10.777344 -20.390625 10.566406 -20.046875 9.851562 -18.910156 C 7.8125 -15.679688 5.667969 -12.925781 3.628906 -10.777344 C 2.621094 -9.746094 1.773438 -8.632812 1.351562 -7.839844 Z M 1.484375 -7.757812 "/></g></g></g><g fill="#ffaf19" fill-opacity="1"><g transform="translate(65.640092, 65.524018)"><g><path d="M 10.964844 -11.46875 L 10.644531 -10.9375 C 10.40625 -10.566406 10.167969 -10.167969 9.929688 -9.773438 C 9.640625 -9.296875 9.402344 -8.84375 9.191406 -8.476562 C 8.421875 -7.019531 8.34375 -6.886719 8.183594 -6.886719 C 8.078125 -6.886719 7.945312 -7.097656 7.757812 -7.519531 C 7.308594 -8.554688 6.914062 -11.308594 6.914062 -13.425781 L 6.914062 -13.824219 C 6.964844 -14.566406 6.992188 -15.070312 6.992188 -15.148438 C 6.992188 -15.679688 6.753906 -16.074219 6.089844 -16.683594 C 5.402344 -17.292969 5.003906 -17.53125 4.765625 -17.53125 C 4.632812 -17.53125 4.527344 -17.425781 4.449219 -17.265625 C 4.210938 -16.789062 4.027344 -14.855469 4.027344 -13.136719 C 4.027344 -9.375 4.847656 -6.328125 6.355469 -4.582031 C 7.308594 -3.46875 8.632812 -2.648438 9.535156 -2.648438 C 9.851562 -2.648438 10.0625 -2.753906 10.277344 -3.046875 C 10.671875 -3.574219 10.777344 -3.867188 10.9375 -4.953125 C 11.121094 -6.089844 11.121094 -6.089844 11.121094 -6.144531 C 11.121094 -6.171875 11.097656 -6.277344 11.070312 -6.460938 L 11.042969 -6.886719 C 11.042969 -6.992188 11.070312 -7.070312 11.097656 -7.152344 C 11.121094 -7.230469 11.148438 -7.257812 11.148438 -7.28125 C 11.148438 -7.308594 11.121094 -7.363281 11.070312 -7.441406 C 10.9375 -7.628906 10.9375 -7.628906 10.832031 -8.582031 C 10.804688 -8.871094 10.859375 -9.453125 11.042969 -10.539062 C 11.042969 -10.777344 11.042969 -10.9375 11.070312 -10.992188 C 11.070312 -11.121094 11.097656 -11.175781 11.175781 -11.386719 Z M 15.941406 -16.5 C 15.652344 -16.5 15.414062 -16.261719 15.414062 -16.023438 C 15.414062 -15.863281 15.464844 -15.730469 15.679688 -15.519531 C 17.875 -13.054688 18.566406 -11.785156 18.882812 -9.347656 C 18.9375 -8.898438 18.9375 -8.792969 19.042969 -8.660156 C 19.121094 -8.527344 19.332031 -8.289062 20.207031 -7.46875 C 20.738281 -6.992188 21.160156 -6.804688 21.796875 -6.804688 C 22.191406 -6.804688 22.21875 -6.832031 22.617188 -7.203125 C 22.855469 -7.441406 22.933594 -7.679688 22.933594 -8.128906 C 22.933594 -11.042969 20.84375 -14.222656 17.929688 -15.730469 C 17.242188 -16.074219 16.15625 -16.5 15.941406 -16.5 Z M 15.941406 -16.5 "/></g></g></g><g fill="#ffaf19" fill-opacity="1"><g transform="translate(92.122076, 65.524018)"><g><path d="M 10.699219 -12.078125 L 11.070312 -13.320312 C 14.089844 -14.488281 14.804688 -14.804688 15.203125 -15.070312 C 15.492188 -15.28125 15.703125 -15.625 15.703125 -15.917969 C 15.703125 -16.289062 15.519531 -16.472656 14.832031 -16.871094 C 14.460938 -17.082031 13.613281 -17.425781 13.480469 -17.425781 C 13.402344 -17.425781 13.292969 -17.375 12.925781 -17.1875 C 12.605469 -17.027344 12.578125 -17.003906 12.261719 -16.871094 C 12.472656 -17.53125 12.527344 -17.71875 12.683594 -18.195312 C 12.976562 -19.042969 13.003906 -19.148438 13.003906 -19.386719 C 13.003906 -19.835938 12.578125 -20.417969 11.839844 -21 C 11.203125 -21.476562 10.832031 -21.691406 10.515625 -21.691406 C 10.144531 -21.691406 9.773438 -21.371094 9.773438 -21.082031 C 9.773438 -20.976562 9.800781 -20.867188 9.851562 -20.628906 C 9.929688 -20.367188 9.957031 -20.234375 9.957031 -20.101562 C 9.957031 -19.519531 9.640625 -17.769531 9.136719 -15.757812 C 5.878906 -14.699219 5.589844 -14.59375 4.632812 -14.433594 C 3.734375 -14.25 3.628906 -14.195312 3.628906 -14.007812 C 3.628906 -13.746094 3.789062 -13.53125 4.210938 -13.164062 C 4.980469 -12.527344 5.613281 -12.183594 6.066406 -12.183594 C 6.355469 -12.183594 6.699219 -12.261719 8.105469 -12.578125 C 6.699219 -7.867188 5.984375 -5.851562 5.351562 -4.714844 C 5.003906 -4.210938 4.792969 -3.867188 4.765625 -3.8125 C 4.714844 -3.679688 4.6875 -3.46875 4.6875 -3.152344 C 4.6875 -2.039062 4.765625 -1.5625 4.980469 -1.140625 C 5.164062 -0.792969 5.640625 -0.554688 6.144531 -0.554688 C 6.78125 -0.554688 7.175781 -0.953125 7.574219 -1.933594 C 8.078125 -3.257812 8.210938 -3.707031 9.878906 -9.347656 Z M 18.695312 -3.839844 C 17.453125 -3.839844 16.394531 -3.972656 15.597656 -4.265625 C 14.804688 -4.527344 14.460938 -4.898438 14.140625 -5.800781 C 13.902344 -6.460938 13.613281 -6.859375 13.347656 -6.859375 C 13.03125 -6.859375 12.683594 -6.089844 12.683594 -5.429688 C 12.683594 -4.078125 13.613281 -2.59375 14.9375 -1.828125 C 16.367188 -1.007812 18.140625 -0.660156 20.789062 -0.660156 C 21.691406 -0.660156 22.351562 -0.820312 22.617188 -1.085938 C 22.882812 -1.351562 23.039062 -1.773438 23.039062 -2.222656 C 23.039062 -2.570312 22.933594 -2.808594 22.75 -2.992188 C 22.113281 -3.496094 20.921875 -4.050781 20.472656 -4.050781 Z M 19.863281 -13.082031 C 18.988281 -13.082031 16.816406 -12.367188 14.328125 -11.28125 C 13.480469 -10.882812 13.082031 -10.621094 13.082031 -10.40625 C 13.082031 -10.0625 14.117188 -9.535156 14.832031 -9.535156 C 14.9375 -9.535156 15.09375 -9.535156 15.28125 -9.558594 C 17.027344 -9.800781 18.273438 -9.90625 19.652344 -9.929688 C 21.34375 -9.929688 21.796875 -9.984375 22.113281 -10.195312 C 22.351562 -10.328125 22.484375 -10.671875 22.484375 -11.070312 C 22.484375 -11.492188 22.324219 -11.945312 22.085938 -12.15625 C 21.636719 -12.605469 20.5 -13.082031 19.863281 -13.082031 Z M 19.863281 -13.082031 "/></g></g></g><g fill="#ffaf19" fill-opacity="1"><g transform="translate(118.604059, 65.524018)"><g><path d="M 10.964844 -11.46875 L 10.644531 -10.9375 C 10.40625 -10.566406 10.167969 -10.167969 9.929688 -9.773438 C 9.640625 -9.296875 9.402344 -8.84375 9.191406 -8.476562 C 8.421875 -7.019531 8.34375 -6.886719 8.183594 -6.886719 C 8.078125 -6.886719 7.945312 -7.097656 7.757812 -7.519531 C 7.308594 -8.554688 6.914062 -11.308594 6.914062 -13.425781 L 6.914062 -13.824219 C 6.964844 -14.566406 6.992188 -15.070312 6.992188 -15.148438 C 6.992188 -15.679688 6.753906 -16.074219 6.089844 -16.683594 C 5.402344 -17.292969 5.003906 -17.53125 4.765625 -17.53125 C 4.632812 -17.53125 4.527344 -17.425781 4.449219 -17.265625 C 4.210938 -16.789062 4.027344 -14.855469 4.027344 -13.136719 C 4.027344 -9.375 4.847656 -6.328125 6.355469 -4.582031 C 7.308594 -3.46875 8.632812 -2.648438 9.535156 -2.648438 C 9.851562 -2.648438 10.0625 -2.753906 10.277344 -3.046875 C 10.671875 -3.574219 10.777344 -3.867188 10.9375 -4.953125 C 11.121094 -6.089844 11.121094 -6.089844 11.121094 -6.144531 C 11.121094 -6.171875 11.097656 -6.277344 11.070312 -6.460938 L 11.042969 -6.886719 C 11.042969 -6.992188 11.070312 -7.070312 11.097656 -7.152344 C 11.121094 -7.230469 11.148438 -7.257812 11.148438 -7.28125 C 11.148438 -7.308594 11.121094 -7.363281 11.070312 -7.441406 C 10.9375 -7.628906 10.9375 -7.628906 10.832031 -8.582031 C 10.804688 -8.871094 10.859375 -9.453125 11.042969 -10.539062 C 11.042969 -10.777344 11.042969 -10.9375 11.070312 -10.992188 C 11.070312 -11.121094 11.097656 -11.175781 11.175781 -11.386719 Z M 15.941406 -16.5 C 15.652344 -16.5 15.414062 -16.261719 15.414062 -16.023438 C 15.414062 -15.863281 15.464844 -15.730469 15.679688 -15.519531 C 17.875 -13.054688 18.566406 -11.785156 18.882812 -9.347656 C 18.9375 -8.898438 18.9375 -8.792969 19.042969 -8.660156 C 19.121094 -8.527344 19.332031 -8.289062 20.207031 -7.46875 C 20.738281 -6.992188 21.160156 -6.804688 21.796875 -6.804688 C 22.191406 -6.804688 22.21875 -6.832031 22.617188 -7.203125 C 22.855469 -7.441406 22.933594 -7.679688 22.933594 -8.128906 C 22.933594 -11.042969 20.84375 -14.222656 17.929688 -15.730469 C 17.242188 -16.074219 16.15625 -16.5 15.941406 -16.5 Z M 15.941406 -16.5 "/></g></g></g></svg>